<svg width="1728" height="1117" viewBox="0 0 1728 1117" fill="none" xmlns="http://www.w3.org/2000/svg">
<g id="MacBook Pro 16&#34; - 1">
<rect width="1728" height="1117" fill="white"/>
<rect id="Rectangle 1" x="314" y="317" width="418" height="190" rx="95" fill="#78410F"/>
<g id="Raw">
<g id="Vector">
<path d="M488 412C488 455.63 452.63 491 409 491C365.37 491 330 455.63 330 412C330 368.37 365.37 333 409 333C452.63 333 488 368.37 488 412Z" fill="#FFF3E1"/>
<path fill-rule="evenodd" clip-rule="evenodd" d="M347.212 422.797C346.562 422.241 346.87 420.63 347.979 418.203C345.315 414.841 344.123 412.509 344.828 411.658C345.467 410.887 347.588 411.42 350.804 413.008C354.859 406.322 361.782 396.901 370.297 386.681C361.161 377.688 356.007 371.39 357.113 370.055C358.222 368.716 365.412 372.64 376.002 379.993C383.906 370.938 391.43 363.191 397.342 357.868C394.848 354.674 393.748 352.462 394.429 351.641C395.169 350.748 397.917 351.619 402.065 353.864C405.766 350.964 408.331 349.65 409.22 350.412C410.038 351.112 409.34 353.48 407.438 357.043C414.499 361.506 423.766 368.284 433.655 376.367C442.842 367.328 449.259 362.244 450.579 363.375C451.895 364.502 447.882 371.587 440.401 382.005C449.823 390.059 457.768 397.633 462.985 403.404C465.485 401.677 467.21 400.993 467.904 401.587C468.661 402.236 468.101 404.336 466.473 407.508C469.002 410.736 470.12 412.971 469.435 413.797C468.808 414.554 466.736 414.043 463.592 412.501C459.513 419.014 453.002 427.82 445.086 437.368C453.773 445.983 458.629 451.986 457.552 453.286C456.473 454.588 449.638 450.909 439.516 443.938C431.062 453.69 422.993 462.026 416.756 467.628C418.959 470.539 419.901 472.556 419.256 473.334C418.552 474.184 416.04 473.447 412.243 471.455C408.512 474.392 405.931 475.728 405.043 474.967C404.23 474.27 404.936 471.9 406.851 468.327C400.157 464.151 391.37 457.787 381.922 450.15C373.12 458.748 367.002 463.54 365.716 462.439C364.436 461.342 368.195 454.612 375.283 444.663C365.065 436.027 356.456 427.846 350.988 421.746C349.107 422.902 347.797 423.299 347.212 422.797ZM390.331 441.628C398.787 448.851 406.05 455.694 411.208 461.188C415.654 454.505 422.115 445.993 429.741 436.936C423.473 432.296 416.488 426.876 409.154 420.923C402.484 428.591 396.081 435.617 390.331 441.628ZM399.931 413.31C393.394 421.064 387.45 428.453 382.41 435.041C372.967 427.396 364.17 421.011 357.444 416.796C363.221 411.787 370.841 404.08 378.949 394.904C385.07 400.55 392.188 406.808 399.931 413.31ZM416.905 411.861C424.128 417.976 430.758 423.841 436.479 429.142C444.01 420.663 451.084 413.468 456.637 408.528C450.282 404.528 442.105 398.621 433.283 391.558C428.515 397.761 422.972 404.647 416.905 411.861ZM425.24 384.944C419.848 390.606 413.906 397.132 407.725 404.221C399.9 397.818 392.427 391.982 385.736 387.007C392.797 378.56 398.79 370.636 402.999 364.32C408.507 370.125 416.261 377.361 425.24 384.944Z" fill="#FFEBCC"/>
</g>
</g>
</g>
</svg>
