<svg width="1728" height="1117" viewBox="0 0 1728 1117" fill="none" xmlns="http://www.w3.org/2000/svg">
<g id="Frame 1">
<rect width="1728" height="1117" fill="white"/>
<path id="Layer1" fill-rule="evenodd" clip-rule="evenodd" d="M864.005 532L1066.89 612.455H1067.77L1067.33 612.629L1067.77 612.803H1066.89L1066.39 613H1067V695H1066.62L1066.65 695.012H1067.52L1067.08 695.186L1067.52 695.359H1066.65L863.761 775.814L660.876 695.359H660L660.438 695.186L660 695.012H660.877L661 694.963V613H661.618L661.12 612.803H660.244L660.682 612.629L660.243 612.455H661.12L864.005 532Z" fill="#F3E3BF"/>
<path id="Jam" fill-rule="evenodd" clip-rule="evenodd" d="M864.005 504L1066.89 584.455H1067.77L1067.33 584.629L1067.77 584.803H1066.89L1066.39 585H1067V613.012H1067.52L1067.08 613.186L1067.52 613.359H1067V614H1065.03L863.761 693.814L662.492 614H661V613.408L660.876 613.359H660L660.438 613.186L660 613.012H660.877L661 612.963V585H661.617L661.12 584.803H660.243L660.682 584.629L660.243 584.455H661.12L864.005 504Z" fill="#EB5280"/>
<path id="Icing1" fill-rule="evenodd" clip-rule="evenodd" d="M1066.89 556.455L864.005 476L661.12 556.455H660.243L660.682 556.629L660.243 556.803H661.12L661.617 557H661V584.963L660.877 585.012H660L660.438 585.186L660 585.359H660.876L661 585.408V586H662.492L863.761 665.814L1065.03 586H1067V585.359H1067.52L1067.08 585.186L1067.52 585.012H1067V557H1066.39L1066.89 556.803H1067.77L1067.33 556.629L1067.77 556.455H1066.89Z" fill="#F8F8FF"/>
<path id="Layer2" fill-rule="evenodd" clip-rule="evenodd" d="M864.005 396L1066.89 476.455H1067.77L1067.33 476.629L1067.77 476.803H1066.89L1066.39 477H1067V559H1066.62L1066.65 559.012H1067.52L1067.08 559.186L1067.52 559.359H1066.65L863.761 639.814L660.876 559.359H660L660.438 559.186L660 559.012H660.877L661 558.963V477H661.618L661.12 476.803H660.244L660.682 476.629L660.243 476.455H661.12L864.005 396Z" fill="#F3E3BF"/>
<path id="Icing2" fill-rule="evenodd" clip-rule="evenodd" d="M1065.5 477L1066.65 477.455H1067.52L1067.08 477.629L1067.52 477.803H1066.65L863.761 558.258L660.876 477.803H660L660.438 477.629L660 477.455H660.877L863.762 397L1017.24 457.864V448H1066.24V477H1065.5Z" fill="#ECECFF"/>
<path id="Icingtop" d="M1066.65 447.455L863.761 367L660.877 447.455H660L660.438 447.629L660 447.803H660.876L863.761 528.258L1066.65 447.803H1067.52L1067.08 447.629L1067.52 447.455H1066.65Z" fill="#F6F6FF"/>
<path id="Layer1side" d="M864 776L661 695.5V613.5L864 694V776Z" fill="#FFF7E3"/>
<path id="Jamside" d="M661 613.5V585.5L864 666V694L661 613.5Z" fill="#FF86AA"/>
<path id="Icing1side" d="M661 586V558L864 638.5V666.5L661 586Z" fill="#F1F1FE"/>
<path id="Layer2side" d="M864 639.5L661 559V477L864 557.5V639.5Z" fill="#FFF7E3"/>
<path id="Icing2side" d="M661 476V448L864 528.5V556.5L661 476Z" fill="#F1F1FE"/>
<g id="Rightberry">
<path d="M939 414.258C939 436.35 921.315 454.258 899.5 454.258C877.685 454.258 860 436.35 860 414.258C860 392.167 877.685 374.258 899.5 374.258C921.315 374.258 939 392.167 939 414.258Z" fill="#8297DF"/>
<path d="M926.031 393.667C931.229 399.789 934.571 407.248 935.727 415.151C936.226 418.566 933.416 421.379 930.008 421.379C926.599 421.379 923.903 418.55 923.201 415.172C921.102 405.07 913.984 396.839 904.612 393.28C901.42 392.068 899.059 388.944 899.569 385.532C900.079 382.122 903.243 379.732 906.5 380.742C914.046 383.082 920.831 387.544 926.031 393.667Z" fill="#B9C6F4"/>
</g>
<g id="Leftberry">
<path d="M868 414.258C868 436.35 850.315 454.258 828.5 454.258C806.685 454.258 789 436.35 789 414.258C789 392.167 806.685 374.258 828.5 374.258C850.315 374.258 868 392.167 868 414.258Z" fill="#8297DF"/>
<path d="M855.031 393.667C860.229 399.789 863.571 407.248 864.727 415.151C865.226 418.566 862.416 421.379 859.008 421.379C855.599 421.379 852.903 418.55 852.201 415.172C850.102 405.07 842.984 396.839 833.612 393.28C830.42 392.068 828.059 388.944 828.569 385.532C829.079 382.122 832.243 379.732 835.5 380.742C843.046 383.082 849.831 387.544 855.031 393.667Z" fill="#B9C6F4"/>
</g>
<path id="Leaf" d="M854.73 410.959L862.898 386.042C871.051 361.166 897.827 347.61 922.703 355.764V355.764L914.536 380.681C906.383 405.557 879.607 419.113 854.73 410.959V410.959Z" fill="#31673D"/>
<g id="Centerbery">
<path d="M907 444.758C907 466.574 889.315 484.258 867.5 484.258C845.685 484.258 828 466.574 828 444.758C828 422.943 845.685 405.258 867.5 405.258C889.315 405.258 907 422.943 907 444.758Z" fill="#8297DF"/>
<path d="M894.031 424.425C899.229 430.47 902.571 437.836 903.727 445.64C904.226 449.012 901.416 451.79 898.008 451.79C894.599 451.79 891.903 448.996 891.201 445.661C889.102 435.685 881.984 427.557 872.612 424.042C869.42 422.846 867.059 419.761 867.569 416.391C868.079 413.024 871.243 410.664 874.5 411.661C882.046 413.972 888.831 418.378 894.031 424.425Z" fill="#B9C6F4"/>
</g>
</g>
</svg>
