<svg width="1728" height="1117" viewBox="0 0 1728 1117" fill="none" xmlns="http://www.w3.org/2000/svg">
<g id="Frame 1">
<rect width="1728" height="1117" fill="white"/>
<path id="Layer1" fill-rule="evenodd" clip-rule="evenodd" d="M864.005 532L1066.89 612.455H1067.77L1067.33 612.629L1067.77 612.803H1066.89L1066.39 613H1067V695H1066.62L1066.65 695.012H1067.52L1067.08 695.186L1067.52 695.359H1066.65L863.761 775.814L660.876 695.359H660L660.438 695.186L660 695.012H660.877L661 694.963V613H661.618L661.12 612.803H660.244L660.682 612.629L660.243 612.455H661.12L864.005 532Z" fill="#F3E3BF"/>
<path id="Jam" fill-rule="evenodd" clip-rule="evenodd" d="M864.005 504L1066.89 584.455H1067.77L1067.33 584.629L1067.77 584.803H1066.89L1066.39 585H1067V613.012H1067.52L1067.08 613.186L1067.52 613.359H1067V614H1065.03L863.761 693.814L662.492 614H661V613.408L660.876 613.359H660L660.438 613.186L660 613.012H660.877L661 612.963V585H661.617L661.12 584.803H660.243L660.682 584.629L660.243 584.455H661.12L864.005 504Z" fill="#EB5280"/>
<path id="Icing1" fill-rule="evenodd" clip-rule="evenodd" d="M1066.89 556.455L864.005 476L661.12 556.455H660.243L660.682 556.629L660.243 556.803H661.12L661.617 557H661V584.963L660.877 585.012H660L660.438 585.186L660 585.359H660.876L661 585.408V585.934H660.522L864.283 666.737L1067.88 586H1068V585.952L1068.04 585.934H1068V557H1066.39L1066.89 556.803H1067.77L1067.33 556.629L1067.77 556.455H1066.89Z" fill="#ECECFF"/>
<path id="Layer2" fill-rule="evenodd" clip-rule="evenodd" d="M864.005 396L1066.89 476.455H1067.77L1067.33 476.629L1067.77 476.803H1066.89L1066.39 477H1067V559H1066.62L1066.65 559.012H1067.52L1067.08 559.186L1067.52 559.359H1066.65L863.761 639.814L660.876 559.359H660L660.438 559.186L660 559.012H660.877L661 558.963V477H661.618L661.12 476.803H660.244L660.682 476.629L660.243 476.455H661.12L864.005 396Z" fill="#F3E3BF"/>
<path id="Icing2" fill-rule="evenodd" clip-rule="evenodd" d="M1065.5 477L1066.65 477.455H1067.52L1067.08 477.629L1067.52 477.803H1066.65L863.761 558.258L660.876 477.803H660L660.438 477.629L660 477.455H660.877L863.762 397L1017.24 457.864V448H1066.24V477H1065.5Z" fill="#ECECFF"/>
<path id="Icingtop" d="M1066.65 447.455L863.761 367L660.877 447.455H660L660.438 447.629L660 447.803H660.876L863.761 528.258L1066.65 447.803H1067.52L1067.08 447.629L1067.52 447.455H1066.65Z" fill="#F6F6FF"/>
<path id="Layer1side" d="M864 776L661 695.5V613.5L864 694V776Z" fill="#FFF7E3"/>
<path id="Jamside" d="M661 613.5V585.5L864 666V694L661 613.5Z" fill="#FF86AA"/>
<path id="Icing1side" d="M661 586V558L864 638.5V666.5L661 586Z" fill="#F1F1FE"/>
<path id="Layer2side" d="M864 639.5L661 559V477L864 557.5V639.5Z" fill="#FFF7E3"/>
<path id="Icing2side" d="M661 476V448L864 528.5V556.5L661 476Z" fill="#F1F1FE"/>
<g id="Rightberry">
<path d="M939 414.258C939 436.35 921.315 454.258 899.5 454.258C877.685 454.258 860 436.35 860 414.258C860 392.167 877.685 374.258 899.5 374.258C921.315 374.258 939 392.167 939 414.258Z" fill="#8297DF"/>
<path d="M926.031 393.667C931.229 399.789 934.571 407.248 935.727 415.151C936.226 418.566 933.416 421.379 930.008 421.379C926.599 421.379 923.903 418.55 923.201 415.172C921.102 405.07 913.984 396.839 904.612 393.28C901.42 392.068 899.059 388.944 899.569 385.532C900.079 382.122 903.243 379.732 906.5 380.742C914.046 383.082 920.831 387.544 926.031 393.667Z" fill="#B9C6F4"/>
</g>
<g id="Leftberry">
<path d="M868 414.258C868 436.35 850.315 454.258 828.5 454.258C806.685 454.258 789 436.35 789 414.258C789 392.167 806.685 374.258 828.5 374.258C850.315 374.258 868 392.167 868 414.258Z" fill="#8297DF"/>
<path d="M855.031 393.667C860.229 399.789 863.571 407.248 864.727 415.151C865.226 418.566 862.416 421.379 859.008 421.379C855.599 421.379 852.903 418.55 852.201 415.172C850.102 405.07 842.984 396.839 833.612 393.28C830.42 392.068 828.059 388.944 828.569 385.532C829.079 382.122 832.243 379.732 835.5 380.742C843.046 383.082 849.831 387.544 855.031 393.667Z" fill="#B9C6F4"/>
</g>
<path id="Leaf" d="M854.73 410.959L862.898 386.042C871.051 361.166 897.827 347.61 922.703 355.764V355.764L914.536 380.681C906.383 405.557 879.607 419.113 854.73 410.959V410.959Z" fill="#31673D"/>
<g id="Centerbery">
<path d="M907 444.758C907 466.574 889.315 484.258 867.5 484.258C845.685 484.258 828 466.574 828 444.758C828 422.943 845.685 405.258 867.5 405.258C889.315 405.258 907 422.943 907 444.758Z" fill="#8297DF"/>
<path d="M894.031 424.425C899.229 430.47 902.571 437.836 903.727 445.64C904.226 449.012 901.416 451.79 898.008 451.79C894.599 451.79 891.903 448.996 891.201 445.661C889.102 435.685 881.984 427.557 872.612 424.042C869.42 422.846 867.059 419.761 867.569 416.391C868.079 413.024 871.243 410.664 874.5 411.661C882.046 413.972 888.831 418.378 894.031 424.425Z" fill="#B9C6F4"/>
</g>
<path id="FAQ" d="M864.312 775.729L883.932 767.602V777.252L875.897 780.58V789.724L883.051 786.761V795.935L875.897 798.898V819.152L864.312 823.951V775.729ZM906.772 758.141L913.403 803.616L901.543 808.529L900.965 800.101L896.81 801.822L896.122 810.774L884.124 815.744L890.013 765.083L906.772 758.141ZM900.635 791.689C900.048 786.472 899.461 779.973 898.874 772.194C897.7 781.894 896.966 788.94 896.673 793.33L900.635 791.689ZM941.884 791.819V797.657L933.134 801.281C931.024 802.155 929.538 802.592 928.676 802.592C927.814 802.611 927.227 802.338 926.915 801.773C926.621 801.199 926.474 800.009 926.474 798.202C923.851 799.209 921.595 799.399 919.705 798.772C917.815 798.145 916.568 796.875 915.963 794.961C915.357 793.027 915.055 789.896 915.055 785.568V770.645C915.055 767.369 915.229 764.805 915.577 762.952C915.944 761.073 916.687 759.147 917.806 757.174C918.925 755.182 920.365 753.434 922.127 751.93C923.888 750.426 925.842 749.229 927.988 748.34C930.575 747.269 932.877 746.792 934.895 746.909C936.931 747.019 938.445 747.603 939.435 748.662C940.444 749.713 941.096 750.973 941.389 752.44C941.701 753.879 941.857 756.158 941.857 759.275V774.942C941.857 779.231 941.664 782.22 941.279 783.909C940.894 785.597 940.151 787.126 939.05 788.495C937.968 789.837 936.518 791.123 934.702 792.351C934.757 793.401 934.959 793.993 935.308 794.126C935.675 794.252 936.528 794.038 937.867 793.483L941.884 791.819ZM930.272 760.797C930.272 758.554 930.153 757.173 929.914 756.657C929.694 756.112 929.226 755.988 928.511 756.285C927.905 756.536 927.438 756.987 927.107 757.64C926.795 758.266 926.64 759.82 926.64 762.302V784.82C926.64 787.619 926.74 789.305 926.942 789.877C927.162 790.441 927.658 790.563 928.428 790.244C929.217 789.917 929.722 789.331 929.942 788.486C930.162 787.64 930.272 785.797 930.272 782.958V760.797Z" fill="#F3E3BF"/>
<path id="Profile" d="M864.312 693.245L875.979 688.412C879.134 687.105 881.556 686.371 883.244 686.208C884.95 686.037 886.225 686.283 887.069 686.946C887.931 687.602 888.509 688.594 888.802 689.922C889.114 691.222 889.27 693.382 889.27 696.4V700.6C889.27 703.677 888.977 706.043 888.39 707.696C887.803 709.349 886.72 710.879 885.143 712.287C883.583 713.688 881.538 714.912 879.006 715.961L875.897 717.249V736.669L864.312 741.468V693.245ZM875.897 696.697V708.969C876.227 708.852 876.511 708.744 876.75 708.645C877.814 708.204 878.547 707.622 878.951 706.899C879.373 706.149 879.584 704.88 879.584 703.093V699.131C879.584 697.483 879.345 696.51 878.868 696.211C878.391 695.912 877.401 696.074 875.897 696.697ZM903.387 685.757L902.947 691.122C904.561 686.74 906.9 683.805 909.964 682.318V696.228C907.927 697.071 906.432 697.988 905.478 698.979C904.524 699.97 903.937 701.047 903.717 702.211C903.497 703.354 903.387 705.842 903.387 709.675V725.282L892.27 729.887V690.362L903.387 685.757ZM937.619 685.457V695.138C937.619 698.692 937.454 701.372 937.124 703.176C936.794 704.961 936.087 706.803 935.005 708.7C933.923 710.578 932.528 712.218 930.822 713.62C929.134 714.994 927.19 716.137 924.988 717.049C922.53 718.067 920.448 718.642 918.742 718.773C917.036 718.884 915.706 718.551 914.752 717.775C913.816 716.971 913.147 715.818 912.743 714.318C912.339 712.797 912.138 710.359 912.138 707.003V696.876C912.138 693.203 912.505 690.181 913.238 687.812C913.972 685.443 915.293 683.238 917.201 681.197C919.109 679.155 921.549 677.519 924.521 676.288C927.016 675.255 929.153 674.777 930.932 674.854C932.73 674.903 934.115 675.372 935.088 676.26C936.06 677.148 936.72 678.205 937.069 679.431C937.436 680.649 937.619 682.658 937.619 685.457ZM926.502 687.084C926.502 685.058 926.401 683.829 926.199 683.397C925.997 682.944 925.566 682.855 924.906 683.128C924.245 683.402 923.805 683.852 923.585 684.48C923.365 685.087 923.255 686.403 923.255 688.429V706.27C923.255 708.137 923.365 709.312 923.585 709.797C923.805 710.262 924.236 710.361 924.878 710.095C925.539 709.822 925.97 709.385 926.172 708.785C926.392 708.178 926.502 707.02 926.502 705.312V687.084ZM955.478 655.483V661.589C953.185 662.539 951.828 663.22 951.406 663.633C951.002 664.019 950.8 664.748 950.8 665.82V667.071L955.478 665.133V671.388L952.837 672.482V704.799L941.719 709.404V677.087L939.435 678.033V671.778L941.719 670.832C941.719 668.231 941.802 666.459 941.967 665.517C942.132 664.575 942.536 663.634 943.178 662.693C943.838 661.724 944.755 660.818 945.93 659.974C947.104 659.13 948.929 658.196 951.406 657.17L955.478 655.483ZM969.045 649.863V656.148L957.597 660.89V654.605L969.045 649.863ZM969.045 658.561V698.086L957.597 702.827V663.302L969.045 658.561ZM984.51 643.458V691.68L973.062 696.422V648.199L984.51 643.458ZM1013.71 660.524L999.314 666.485V675.033C999.314 676.82 999.434 677.923 999.672 678.34C999.911 678.758 1000.37 678.826 1001.05 678.545C1001.89 678.195 1002.45 677.626 1002.73 676.837C1003.02 676.02 1003.17 674.629 1003.17 672.663V667.451L1013.71 663.085V666.004C1013.71 668.447 1013.56 670.384 1013.27 671.816C1012.99 673.241 1012.33 674.914 1011.28 676.836C1010.24 678.759 1008.91 680.432 1007.29 681.855C1005.7 683.251 1003.69 684.45 1001.27 685.453C998.92 686.426 996.847 686.917 995.049 686.927C993.251 686.937 991.848 686.516 990.839 685.663C989.848 684.782 989.16 683.657 988.775 682.288C988.39 680.899 988.197 678.735 988.197 675.796V664.269C988.197 660.814 988.628 657.915 989.49 655.572C990.353 653.21 991.765 651.096 993.728 649.23C995.691 647.345 997.948 645.874 1000.5 644.818C1003.62 643.526 1006.18 643.107 1008.2 643.562C1010.24 643.99 1011.66 645.098 1012.47 646.889C1013.29 648.652 1013.71 651.449 1013.71 655.282V660.524ZM1002.56 658.706V655.817C1002.56 653.772 1002.46 652.493 1002.26 651.981C1002.06 651.469 1001.64 651.342 1001.02 651.601C1000.25 651.92 999.773 652.375 999.589 652.968C999.406 653.54 999.314 654.938 999.314 657.162V660.051L1002.56 658.706Z" fill="#EB5280"/>
<path id="Rewards" d="M864.312 666.245L872.512 662.849C877.979 660.584 881.675 659.281 883.602 658.94C885.546 658.591 887.124 659.109 888.335 660.494C889.564 661.852 890.178 664.586 890.178 668.696C890.178 672.449 889.747 675.149 888.885 676.797C888.023 678.445 886.326 679.922 883.794 681.229C886.087 680.895 887.628 681.081 888.417 681.786C889.206 682.492 889.692 683.244 889.876 684.042C890.077 684.812 890.178 687.143 890.178 691.035V703.753L879.419 708.21V692.185C879.419 689.604 879.226 688.085 878.841 687.629C878.474 687.166 877.493 687.265 875.897 687.926V709.669L864.312 714.468V666.245ZM875.897 669.697V680.42C877.199 679.88 878.107 679.316 878.621 678.725C879.153 678.108 879.419 676.737 879.419 674.612V671.961C879.419 670.432 879.162 669.536 878.648 669.272C878.153 669.001 877.236 669.142 875.897 669.697ZM919.54 672.529L905.148 678.49V687.038C905.148 688.825 905.267 689.928 905.506 690.345C905.744 690.763 906.203 690.831 906.882 690.55C907.726 690.2 908.285 689.631 908.56 688.842C908.854 688.025 909.001 686.634 909.001 684.668V679.456L919.54 675.09V678.009C919.54 680.452 919.393 682.389 919.1 683.821C918.824 685.245 918.164 686.919 917.118 688.841C916.073 690.764 914.743 692.437 913.128 693.86C911.532 695.256 909.523 696.455 907.102 697.458C904.754 698.431 902.681 698.922 900.883 698.932C899.085 698.942 897.682 698.521 896.673 697.668C895.682 696.787 894.994 695.662 894.609 694.293C894.223 692.904 894.031 690.74 894.031 687.801V676.274C894.031 672.819 894.462 669.92 895.324 667.577C896.186 665.215 897.599 663.1 899.562 661.235C901.525 659.35 903.781 657.879 906.331 656.823C909.45 655.531 912.018 655.112 914.036 655.567C916.073 655.994 917.494 657.103 918.302 658.894C919.127 660.657 919.54 663.454 919.54 667.286V672.529ZM908.395 670.711V667.822C908.395 665.777 908.294 664.498 908.092 663.986C907.891 663.474 907.478 663.347 906.854 663.606C906.084 663.925 905.607 664.38 905.423 664.973C905.24 665.545 905.148 666.943 905.148 669.167V672.056L908.395 670.711ZM959.111 635.676L954.68 677.036L942.6 682.039C941.939 677.488 941.178 671.449 940.316 663.923C940.022 667.5 939.61 671.165 939.078 674.92L937.839 684.011L925.759 689.015L921.053 651.439L930.63 647.473C930.703 648.475 931.51 655.676 933.051 669.077C933.161 667.601 933.987 659.724 935.528 645.444L944.746 641.625L947.003 663.298C947.351 656.561 948.195 648.676 949.534 639.642L959.111 635.676ZM970.888 646.107L960.459 650.427V647.776C960.459 644.718 960.78 642.232 961.422 640.318C962.083 638.376 963.394 636.363 965.357 634.28C967.32 632.196 969.87 630.504 973.007 629.205C976.768 627.647 979.602 627.198 981.51 627.857C983.418 628.496 984.565 629.789 984.95 631.734C985.335 633.659 985.528 637.888 985.528 644.421V664.258L974.713 668.738V665.223C974.035 666.914 973.154 668.341 972.072 669.504C971.008 670.64 969.733 671.516 968.247 672.131C966.302 672.937 964.513 673.092 962.881 672.596C961.266 672.074 960.459 669.817 960.459 665.826V662.579C960.459 659.62 960.89 657.426 961.752 655.997C962.615 654.567 964.752 652.431 968.164 649.588C971.815 646.527 973.769 644.675 974.025 644.033C974.282 643.39 974.411 642.245 974.411 640.597C974.411 638.532 974.264 637.252 973.97 636.758C973.695 636.237 973.227 636.113 972.567 636.386C971.815 636.698 971.347 637.16 971.163 637.772C970.98 638.364 970.888 639.762 970.888 641.967V646.107ZM974.411 650.069C972.631 652.215 971.595 653.826 971.301 654.901C971.026 655.968 970.888 657.395 970.888 659.182C970.888 661.228 971.008 662.499 971.246 662.996C971.503 663.485 971.998 663.578 972.732 663.274C973.429 662.985 973.879 662.57 974.08 662.03C974.301 661.462 974.411 660.186 974.411 658.2V650.069ZM1000.47 618.544L1000.03 623.909C1001.64 619.527 1003.98 616.592 1007.05 615.105V629.015C1005.01 629.858 1003.52 630.775 1002.56 631.766C1001.61 632.757 1001.02 633.834 1000.8 634.997C1000.58 636.141 1000.47 638.629 1000.47 642.461V658.069L989.353 662.674V623.149L1000.47 618.544ZM1034.84 595.61V643.832L1023.72 648.437V645.578C1022.66 647.21 1021.54 648.567 1020.37 649.649C1019.19 650.731 1017.96 651.538 1016.68 652.07C1014.95 652.784 1013.46 652.917 1012.19 652.469C1010.93 652 1010.11 651.196 1009.74 650.058C1009.4 648.911 1009.22 646.879 1009.22 643.96V625.463C1009.22 622.425 1009.4 620.198 1009.74 618.783C1010.11 617.36 1010.94 615.907 1012.22 614.421C1013.5 612.917 1015.04 611.796 1016.82 611.058C1018.19 610.489 1019.45 610.236 1020.59 610.301C1021.74 610.359 1022.79 610.73 1023.72 611.414V600.215L1034.84 595.61ZM1023.72 618.861C1023.72 617.411 1023.6 616.487 1023.36 616.09C1023.14 615.685 1022.7 615.623 1022.02 615.904C1021.36 616.177 1020.91 616.592 1020.67 617.147C1020.45 617.675 1020.34 618.714 1020.34 620.263V639.623C1020.34 641.231 1020.45 642.248 1020.67 642.673C1020.89 643.078 1021.31 643.152 1021.93 642.893C1022.65 642.597 1023.13 642.122 1023.36 641.467C1023.6 640.792 1023.72 639.353 1023.72 637.149V618.861ZM1061.53 605.88L1051.68 609.961V607.816C1051.68 605.989 1051.58 604.879 1051.38 604.486C1051.19 604.066 1050.72 604.015 1049.95 604.334C1049.32 604.593 1048.86 605.015 1048.54 605.601C1048.23 606.167 1048.08 606.897 1048.08 607.79C1048.08 609.001 1048.15 609.865 1048.3 610.38C1048.46 610.867 1048.93 611.289 1049.7 611.645C1050.49 611.993 1052.09 612.311 1054.52 612.599C1057.74 612.969 1059.86 613.7 1060.87 614.791C1061.88 615.882 1062.39 617.868 1062.39 620.747C1062.39 623.964 1062 626.556 1061.23 628.523C1060.46 630.47 1059.17 632.267 1057.35 633.913C1055.55 635.531 1053.38 636.869 1050.83 637.925C1048 639.095 1045.58 639.622 1043.56 639.504C1041.56 639.379 1040.19 638.659 1039.44 637.342C1038.68 636.025 1038.31 633.719 1038.31 630.423V628.516L1048.16 624.436V626.938C1048.16 629.062 1048.28 630.393 1048.52 630.93C1048.77 631.459 1049.27 631.571 1050 631.267C1050.79 630.94 1051.34 630.504 1051.65 629.958C1051.97 629.392 1052.12 628.424 1052.12 627.054C1052.12 625.167 1051.92 624.069 1051.52 623.76C1051.09 623.458 1048.94 622.941 1045.05 622.209C1041.78 621.576 1039.79 620.603 1039.08 619.291C1038.36 617.959 1038 616.182 1038 613.958C1038 610.8 1038.39 608.318 1039.16 606.509C1039.93 604.681 1041.23 602.98 1043.07 601.406C1044.92 599.824 1047.07 598.528 1049.51 597.517C1051.93 596.514 1053.98 596.001 1055.67 595.977C1057.38 595.925 1058.68 596.26 1059.58 596.979C1060.5 597.692 1061.05 598.476 1061.23 599.334C1061.43 600.183 1061.53 601.601 1061.53 603.587V605.88Z" fill="#ECECFF"/>
<path id="Orders" d="M897.691 660.634C897.588 666.828 897.374 671.277 897.048 673.979C896.746 676.647 895.858 679.334 894.384 682.04C892.934 684.737 890.985 687.142 888.537 689.253C886.089 691.365 883.249 693.065 880.018 694.354C876.953 695.577 874.202 696.145 871.767 696.057C869.356 695.934 867.426 695.091 865.976 693.525C864.526 691.96 863.68 689.965 863.44 687.539C863.199 685.113 863.131 680.727 863.236 674.38L863.411 663.832C863.514 657.637 863.716 653.206 864.018 650.539C864.344 647.836 865.232 645.137 866.682 642.439C868.156 639.733 870.117 637.324 872.565 635.213C875.013 633.101 877.853 631.401 881.084 630.112C884.149 628.889 886.888 628.338 889.299 628.461C891.734 628.549 893.676 629.375 895.126 630.94C896.576 632.505 897.421 634.501 897.662 636.927C897.903 639.353 897.971 643.739 897.866 650.086L897.691 660.634ZM883.134 646.317C883.182 643.448 883.059 641.681 882.765 641.016C882.496 640.317 881.901 640.151 880.981 640.518C880.203 640.828 879.596 641.398 879.161 642.228C878.749 643.022 878.517 645.006 878.465 648.18L877.987 676.969C877.928 680.548 878.021 682.705 878.267 683.439C878.536 684.164 879.165 684.329 880.156 683.934C881.17 683.529 881.827 682.788 882.126 681.711C882.425 680.633 882.604 678.279 882.664 674.649L883.134 646.317ZM917.561 627.891L916.885 634.743C919.039 629.167 922.088 625.454 926.031 623.604L925.736 641.388C923.118 642.432 921.19 643.58 919.951 644.83C918.712 646.081 917.94 647.449 917.634 648.932C917.329 650.391 917.135 653.57 917.054 658.47L916.723 678.424L902.432 684.126L903.27 633.593L917.561 627.891ZM961.928 599.144L960.906 660.797L946.615 666.498L946.675 662.843C945.282 664.912 943.825 666.628 942.303 667.992C940.781 669.356 939.195 670.367 937.544 671.025C935.327 671.91 933.415 672.055 931.809 671.46C930.202 670.84 929.177 669.799 928.733 668.337C928.312 666.865 928.133 664.264 928.195 660.532L928.587 636.884C928.651 632.999 928.921 630.155 929.396 628.352C929.894 626.539 930.979 624.694 932.65 622.817C934.322 620.914 936.301 619.506 938.589 618.594C940.358 617.888 941.967 617.586 943.418 617.689C944.892 617.781 946.22 618.273 947.4 619.164L947.637 604.846L961.928 599.144ZM947.242 628.684C947.273 626.831 947.14 625.648 946.844 625.136C946.571 624.614 945.999 624.527 945.126 624.875C944.277 625.214 943.695 625.737 943.378 626.443C943.086 627.114 942.924 628.44 942.891 630.42L942.48 655.173C942.446 657.229 942.565 658.531 942.837 659.078C943.11 659.6 943.647 659.701 944.449 659.381C945.368 659.014 945.987 658.414 946.306 657.581C946.625 656.722 946.807 654.884 946.854 652.066L947.242 628.684ZM998.807 621.465L980.306 628.846L980.125 639.776C980.087 642.06 980.216 643.472 980.512 644.01C980.807 644.547 981.391 644.642 982.264 644.294C983.349 643.861 984.075 643.143 984.443 642.138C984.835 641.099 985.052 639.323 985.094 636.81L985.204 630.146L998.753 624.74L998.691 628.472C998.639 631.595 998.411 634.069 998.006 635.895C997.624 637.712 996.746 639.84 995.37 642.281C993.994 644.721 992.26 646.838 990.169 648.63C988.102 650.388 985.512 651.888 982.399 653.13C979.38 654.334 976.723 654.928 974.427 654.911C972.132 654.893 970.349 654.331 969.079 653.224C967.833 652.082 966.978 650.632 966.515 648.875C966.053 647.092 965.853 644.322 965.915 640.565L966.16 625.828C966.233 621.41 966.845 617.711 967.995 614.73C969.146 611.724 970.994 609.045 973.54 606.692C976.086 604.315 978.998 602.472 982.276 601.164C986.286 599.565 989.574 599.073 992.14 599.688C994.731 600.268 996.523 601.71 997.515 604.012C998.532 606.28 999 609.863 998.918 614.763L998.807 621.465ZM984.617 618.956L984.678 615.262C984.722 612.647 984.62 611.01 984.373 610.352C984.126 609.694 983.602 609.525 982.8 609.845C981.81 610.24 981.191 610.815 980.944 611.569C980.698 612.298 980.551 614.084 980.504 616.927L980.443 620.621L984.617 618.956ZM1018.24 587.725L1017.56 594.577C1019.72 589.002 1022.76 585.289 1026.71 583.438L1026.41 601.222C1023.79 602.266 1021.87 603.414 1020.63 604.665C1019.39 605.916 1018.62 607.283 1018.31 608.767C1018 610.225 1017.81 613.404 1017.73 618.304L1017.4 638.258L1003.11 643.96L1003.95 593.427L1018.24 587.725ZM1058.83 587.571L1046.16 592.623L1046.21 589.882C1046.25 587.546 1046.14 586.125 1045.89 585.619C1045.67 585.079 1045.06 585.006 1044.07 585.401C1043.27 585.721 1042.66 586.253 1042.25 586.997C1041.84 587.715 1041.63 588.646 1041.61 589.788C1041.58 591.337 1041.66 592.442 1041.83 593.103C1042.03 593.729 1042.62 594.276 1043.6 594.744C1044.6 595.202 1046.64 595.636 1049.73 596.044C1053.84 596.571 1056.53 597.541 1057.8 598.953C1059.06 600.365 1059.66 602.911 1059.6 606.593C1059.53 610.705 1058.99 614.013 1057.96 616.515C1056.94 618.992 1055.25 621.267 1052.89 623.341C1050.56 625.38 1047.76 627.054 1044.48 628.362C1040.85 629.811 1037.75 630.443 1035.17 630.26C1032.62 630.067 1030.88 629.122 1029.95 627.426C1029.02 625.73 1028.58 622.775 1028.65 618.561L1028.7 616.124L1041.36 611.071L1041.31 614.27C1041.26 616.986 1041.39 618.69 1041.68 619.38C1041.99 620.06 1042.62 620.212 1043.57 619.836C1044.58 619.432 1045.29 618.883 1045.7 618.19C1046.11 617.471 1046.33 616.236 1046.36 614.484C1046.4 612.073 1046.17 610.666 1045.66 610.263C1045.13 609.87 1042.39 609.173 1037.44 608.172C1033.28 607.308 1030.76 606.032 1029.87 604.342C1028.99 602.627 1028.57 600.348 1028.62 597.505C1028.68 593.468 1029.23 590.301 1030.25 588.001C1031.27 585.677 1032.97 583.524 1035.35 581.542C1037.75 579.551 1040.51 577.929 1043.65 576.678C1046.76 575.436 1049.4 574.814 1051.55 574.812C1053.73 574.774 1055.39 575.223 1056.52 576.159C1057.68 577.084 1058.36 578.097 1058.58 579.196C1058.82 580.286 1058.92 582.1 1058.88 584.639L1058.83 587.571Z" fill="#F3E3BF"/>
<path id="Menu" d="M910.211 538.777L909.188 600.43L896.171 605.624L896.861 564.001L890.971 607.698L881.738 611.382L876.929 572.899L876.255 613.569L863.237 618.763L864.259 557.11L883.538 549.419C884.043 552.899 884.572 557.026 885.125 561.799L886.917 576.669L890.79 546.525L910.211 538.777ZM947.514 560.929L929.013 568.31L928.832 579.24C928.794 581.524 928.923 582.936 929.219 583.473C929.514 584.011 930.098 584.106 930.971 583.758C932.056 583.325 932.782 582.607 933.15 581.602C933.542 580.563 933.759 578.787 933.801 576.274L933.911 569.609L947.46 564.204L947.398 567.936C947.346 571.059 947.118 573.533 946.713 575.359C946.331 577.176 945.452 579.304 944.077 581.745C942.701 584.185 940.967 586.301 938.876 588.094C936.809 589.852 934.218 591.352 931.106 592.594C928.087 593.798 925.43 594.392 923.134 594.374C920.839 594.357 919.056 593.795 917.786 592.688C916.54 591.546 915.685 590.096 915.222 588.339C914.76 586.556 914.56 583.786 914.622 580.029L914.866 565.292C914.94 560.874 915.552 557.175 916.702 554.194C917.853 551.188 919.701 548.509 922.247 546.156C924.793 543.779 927.705 541.936 930.983 540.628C934.992 539.029 938.28 538.536 940.847 539.152C943.438 539.732 945.23 541.174 946.222 543.476C947.239 545.744 947.707 549.327 947.625 554.227L947.514 560.929ZM933.324 558.42L933.385 554.726C933.428 552.111 933.327 550.474 933.08 549.816C932.833 549.158 932.309 548.989 931.507 549.309C930.517 549.704 929.898 550.279 929.651 551.033C929.405 551.762 929.258 553.548 929.211 556.391L929.15 560.085L933.324 558.42ZM967.192 527.09L966.867 531.835C967.935 529.568 969.22 527.681 970.721 526.174C972.246 524.633 973.987 523.471 975.944 522.69C978.397 521.712 980.391 521.534 981.927 522.157C983.463 522.78 984.439 523.954 984.856 525.68C985.273 527.379 985.444 530.438 985.371 534.855L984.784 570.271L970.493 575.972L971.073 540.976C971.131 537.498 971.06 535.42 970.86 534.744C970.66 534.067 970.077 533.921 969.11 534.307C968.096 534.711 967.452 535.41 967.178 536.402C966.904 537.368 966.736 539.756 966.673 543.564L966.106 577.722L951.815 583.424L952.653 532.891L967.192 527.09ZM1023.3 504.707L1022.46 555.24L1007.92 561.041L1008.24 556.753C1007.22 558.849 1005.97 560.62 1004.49 562.067C1003.04 563.479 1001.37 564.561 999.485 565.313C997.339 566.17 995.565 566.474 994.163 566.226C992.762 565.978 991.73 565.318 991.069 564.245C990.431 563.163 990.041 561.931 989.9 560.55C989.759 559.144 989.725 556.27 989.797 551.929L990.362 517.846L1004.65 512.145L1004.08 546.531C1004.02 550.466 1004.09 552.76 1004.29 553.411C1004.51 554.053 1005.12 554.177 1006.11 553.782C1007.17 553.358 1007.8 552.728 1008 551.891C1008.23 551.045 1008.37 548.553 1008.44 544.415L1009 510.409L1023.3 504.707Z" fill="#ECECFF"/>
</g>
</svg>
