<svg width="1728" height="1117" viewBox="0 0 1728 1117" fill="none" xmlns="http://www.w3.org/2000/svg">
<g id="MacBook Pro 16&#34; - 2">
<rect width="1728" height="1117" fill="white"/>
<g id="B">
<path id="Subtract" fill-rule="evenodd" clip-rule="evenodd" d="M733 573H901L1007.5 456L925.5 366H733V573Z" fill="#DC9727"/>
<path id="Vector 2" d="M1033 663L951 573H733.5V780H926.5L1033 663Z" fill="#DC9727"/>
<path id="Vector 3" d="M898.5 608.5H795.5V716.5H898.5L948 662.5L898.5 608.5Z" fill="white"/>
<path id="Vector 4" d="M1033.5 484L951.5 394H734V601H927L1033.5 484Z" fill="#DC9727"/>
<path id="Vector 5" d="M898 429.5H795V537.5H898L947.5 483.5L898 429.5Z" fill="white"/>
</g>
<path id="Leaf" fill-rule="evenodd" clip-rule="evenodd" d="M794.01 535H849V554.605C939.848 535.292 1008 454.605 1008 358V342H989C881.972 342 795.083 428.226 794.01 535Z" fill="#BCAB33"/>
<g id="Flower">
<path fill-rule="evenodd" clip-rule="evenodd" d="M879.628 420.804C875.826 408.189 864.116 399 850.261 399C834.051 399 820.779 411.576 819.668 427.502C817.42 426.978 815.076 426.7 812.668 426.7C795.73 426.7 782 440.43 782 457.368C782 467.901 787.311 477.195 795.401 482.716C789.581 488.298 785.957 496.152 785.957 504.853C785.957 521.791 799.688 535.521 816.625 535.521C821.946 535.521 826.95 534.166 831.311 531.782C834.53 545.274 846.665 555.307 861.143 555.307C877.764 555.307 891.297 542.083 891.796 525.583C894.325 526.258 896.983 526.617 899.725 526.617C916.662 526.617 930.392 512.887 930.392 495.95C930.392 484.901 924.55 475.217 915.785 469.818C921.732 464.225 925.446 456.284 925.446 447.475C925.446 430.538 911.716 416.807 894.778 416.807C889.268 416.807 884.097 418.26 879.628 420.804Z" fill="white"/>
<path d="M879.628 420.804L866.224 424.844L871.292 441.66L886.554 432.971L879.628 420.804ZM819.668 427.502L816.485 441.136L832.49 444.873L833.634 428.477L819.668 427.502ZM795.401 482.716L805.091 492.821L817.543 480.879L803.293 471.153L795.401 482.716ZM831.311 531.782L844.929 528.533L840.677 510.71L824.597 519.497L831.311 531.782ZM891.796 525.583L895.406 512.056L878.336 507.501L877.803 525.16L891.796 525.583ZM915.785 469.818L906.193 459.62L892.873 472.149L908.443 481.739L915.785 469.818ZM850.261 413C857.77 413 864.154 417.977 866.224 424.844L893.032 416.764C887.497 398.4 870.462 385 850.261 385V413ZM833.634 428.477C834.237 419.834 841.457 413 850.261 413V385C826.646 385 807.321 403.317 805.702 426.528L833.634 428.477ZM812.668 440.7C813.997 440.7 815.273 440.853 816.485 441.136L822.851 413.869C819.567 413.102 816.155 412.7 812.668 412.7V440.7ZM796 457.368C796 448.162 803.462 440.7 812.668 440.7V412.7C787.998 412.7 768 432.698 768 457.368H796ZM803.293 471.153C798.861 468.128 796 463.08 796 457.368H768C768 472.723 775.76 486.261 787.509 494.28L803.293 471.153ZM799.957 504.853C799.957 500.122 801.91 495.871 805.091 492.821L785.711 472.612C777.251 480.724 771.957 492.182 771.957 504.853H799.957ZM816.625 521.521C807.42 521.521 799.957 514.059 799.957 504.853H771.957C771.957 529.523 791.956 549.521 816.625 549.521V521.521ZM824.597 519.497C822.243 520.784 819.541 521.521 816.625 521.521V549.521C824.35 549.521 831.657 547.548 838.025 544.067L824.597 519.497ZM861.143 541.307C853.292 541.307 846.678 535.866 844.929 528.533L817.693 535.031C822.382 554.683 840.037 569.307 861.143 569.307V541.307ZM877.803 525.16C877.532 534.12 870.174 541.307 861.143 541.307V569.307C885.355 569.307 905.063 550.047 905.79 526.006L877.803 525.16ZM899.725 512.617C898.213 512.617 896.768 512.42 895.406 512.056L888.186 539.109C891.882 540.096 895.753 540.617 899.725 540.617V512.617ZM916.392 495.95C916.392 505.155 908.93 512.617 899.725 512.617V540.617C924.394 540.617 944.392 520.619 944.392 495.95H916.392ZM908.443 481.739C913.243 484.695 916.392 489.961 916.392 495.95H944.392C944.392 479.841 935.856 465.738 923.127 457.898L908.443 481.739ZM911.446 447.475C911.446 452.263 909.445 456.562 906.193 459.62L925.377 480.016C934.02 471.888 939.446 460.304 939.446 447.475H911.446ZM894.778 430.807C903.984 430.807 911.446 438.269 911.446 447.475H939.446C939.446 422.806 919.448 402.807 894.778 402.807V430.807ZM886.554 432.971C888.968 431.597 891.76 430.807 894.778 430.807V402.807C886.776 402.807 879.226 404.924 872.702 408.638L886.554 432.971Z" fill="#D27260"/>
</g>
</g>
</svg>
