<svg width="1728" height="1117" viewBox="0 0 1728 1117" fill="none" xmlns="http://www.w3.org/2000/svg">
<g id="MacBook Pro 16&#34; - 2">
<rect width="1728" height="1117" fill="white"/>
<g id="B">
<path id="Subtract" fill-rule="evenodd" clip-rule="evenodd" d="M733 573H901L1007.5 456L925.5 366H733V573Z" fill="#DC9727"/>
<path id="Vector 2" d="M1033 663L951 573H733.5V780H926.5L1033 663Z" fill="#DC9727"/>
<path id="Vector 3" d="M898.5 608.5H795.5V716.5H898.5L948 662.5L898.5 608.5Z" fill="white"/>
<path id="Vector 4" d="M1033.5 484L951.5 394H734V601H927L1033.5 484Z" fill="#DC9727"/>
<path id="Vector 5" d="M898 429.5H795V537.5H898L947.5 483.5L898 429.5Z" fill="white"/>
</g>
<path id="Subtract_2" fill-rule="evenodd" clip-rule="evenodd" d="M799.218 492H883V544.135C956.331 514.163 1008 442.115 1008 358V342H989C896.793 342 819.533 405.999 799.218 492Z" fill="#BCAB33"/>
<g id="Flower">
<path fill-rule="evenodd" clip-rule="evenodd" d="M879.628 420.804C875.826 408.189 864.116 399 850.261 399C834.051 399 820.779 411.576 819.668 427.502C817.42 426.978 815.076 426.7 812.668 426.7C795.73 426.7 782 440.43 782 457.368C782 467.901 787.311 477.195 795.401 482.716C789.581 488.298 785.957 496.152 785.957 504.853C785.957 521.791 799.688 535.521 816.625 535.521C821.946 535.521 826.95 534.166 831.311 531.782C834.53 545.274 846.665 555.307 861.143 555.307C877.764 555.307 891.297 542.083 891.796 525.583C894.325 526.258 896.983 526.617 899.725 526.617C916.662 526.617 930.392 512.887 930.392 495.95C930.392 484.901 924.55 475.217 915.785 469.818C921.732 464.225 925.446 456.284 925.446 447.475C925.446 430.538 911.716 416.807 894.778 416.807C889.268 416.807 884.097 418.26 879.628 420.804Z" fill="white"/>
<path d="M879.628 420.804L866.224 424.844L871.292 441.66L886.554 432.971L879.628 420.804ZM819.668 427.502L816.485 441.136L832.49 444.873L833.634 428.477L819.668 427.502ZM795.401 482.716L805.091 492.821L817.543 480.879L803.293 471.153L795.401 482.716ZM831.311 531.782L844.929 528.533L840.677 510.71L824.597 519.497L831.311 531.782ZM891.796 525.583L895.406 512.056L878.336 507.501L877.803 525.16L891.796 525.583ZM915.785 469.818L906.193 459.62L892.873 472.149L908.443 481.739L915.785 469.818ZM850.261 413C857.77 413 864.154 417.977 866.224 424.844L893.032 416.764C887.497 398.4 870.462 385 850.261 385V413ZM833.634 428.477C834.237 419.834 841.457 413 850.261 413V385C826.646 385 807.321 403.317 805.702 426.528L833.634 428.477ZM812.668 440.7C813.997 440.7 815.273 440.853 816.485 441.136L822.851 413.869C819.567 413.102 816.155 412.7 812.668 412.7V440.7ZM796 457.368C796 448.162 803.462 440.7 812.668 440.7V412.7C787.998 412.7 768 432.698 768 457.368H796ZM803.293 471.153C798.861 468.128 796 463.08 796 457.368H768C768 472.723 775.76 486.261 787.509 494.28L803.293 471.153ZM799.957 504.853C799.957 500.122 801.91 495.871 805.091 492.821L785.711 472.612C777.251 480.724 771.957 492.182 771.957 504.853H799.957ZM816.625 521.521C807.42 521.521 799.957 514.059 799.957 504.853H771.957C771.957 529.523 791.956 549.521 816.625 549.521V521.521ZM824.597 519.497C822.243 520.784 819.541 521.521 816.625 521.521V549.521C824.35 549.521 831.657 547.548 838.025 544.067L824.597 519.497ZM861.143 541.307C853.292 541.307 846.678 535.866 844.929 528.533L817.693 535.031C822.382 554.683 840.037 569.307 861.143 569.307V541.307ZM877.803 525.16C877.532 534.12 870.174 541.307 861.143 541.307V569.307C885.355 569.307 905.063 550.047 905.79 526.006L877.803 525.16ZM899.725 512.617C898.213 512.617 896.768 512.42 895.406 512.056L888.186 539.109C891.882 540.096 895.753 540.617 899.725 540.617V512.617ZM916.392 495.95C916.392 505.155 908.93 512.617 899.725 512.617V540.617C924.394 540.617 944.392 520.619 944.392 495.95H916.392ZM908.443 481.739C913.243 484.695 916.392 489.961 916.392 495.95H944.392C944.392 479.841 935.856 465.738 923.127 457.898L908.443 481.739ZM911.446 447.475C911.446 452.263 909.445 456.562 906.193 459.62L925.377 480.016C934.02 471.888 939.446 460.304 939.446 447.475H911.446ZM894.778 430.807C903.984 430.807 911.446 438.269 911.446 447.475H939.446C939.446 422.806 919.448 402.807 894.778 402.807V430.807ZM886.554 432.971C888.968 431.597 891.76 430.807 894.778 430.807V402.807C886.776 402.807 879.226 404.924 872.702 408.638L886.554 432.971Z" fill="#D27260"/>
</g>
<path id="B_2" d="M567.795 850.63V924H586.055C591.115 924 597.825 923.78 603.655 919.16C607.615 916.08 611.135 910.36 611.135 903.32C611.135 896.28 607.395 887.37 597.165 884.84C603.655 880.44 604.425 874.06 604.425 870.43C604.425 861.52 600.135 857.01 597.825 855.25C592.435 850.96 585.065 850.63 580.995 850.63H567.795ZM575.935 858.33H582.315C584.625 858.33 596.505 858.55 596.505 870.65C596.505 881.98 586.385 882.86 582.095 882.86H575.935V858.33ZM575.935 890.12H584.295C590.125 890.12 593.975 890.78 596.725 892.32C599.585 893.86 602.995 897.27 602.995 903.1C602.995 907.5 601.015 911.13 598.155 913.22C594.635 915.97 590.015 916.3 585.285 916.3H575.935V890.12Z" fill="#BCAB33"/>
<path id="A" d="M689.806 924H698.826L665.936 847.11L632.166 924H641.186L649.986 903.32H681.226L689.806 924ZM653.176 895.62L665.716 866.25L678.036 895.62H653.176Z" fill="#BCAB33"/>
<path id="R" d="M723.853 850.63V924H731.993V891.88H734.083L756.413 924H766.313L742.993 891.22C754.103 890.45 761.473 882.2 761.473 870.98C761.473 863.17 757.733 857.56 753.443 854.7C747.943 850.96 740.573 850.63 735.623 850.63H723.853ZM731.993 858.33H736.943C740.463 858.33 744.203 858.55 747.503 860.42C752.123 863.06 753.333 867.13 753.333 871.2C753.333 879.78 747.283 884.62 737.163 884.62H731.993V858.33Z" fill="#BCAB33"/>
<path id="T" d="M829.402 858.33V850.63H785.622V858.33H803.442V924H811.582V858.33H829.402Z" fill="#BCAB33"/>
<path id="R_2" d="M854.853 850.63V924H862.993V891.88H865.083L887.413 924H897.313L873.993 891.22C885.103 890.45 892.473 882.2 892.473 870.98C892.473 863.17 888.733 857.56 884.443 854.7C878.943 850.96 871.573 850.63 866.623 850.63H854.853ZM862.993 858.33H867.943C871.463 858.33 875.203 858.55 878.503 860.42C883.123 863.06 884.333 867.13 884.333 871.2C884.333 879.78 878.283 884.62 868.163 884.62H862.993V858.33Z" fill="#BCAB33"/>
<path id="A_2" d="M974.806 924H983.826L950.936 847.11L917.166 924H926.186L934.986 903.32H966.226L974.806 924ZM938.176 895.62L950.716 866.25L963.036 895.62H938.176Z" fill="#BCAB33"/>
<path id="M" d="M1015.31 924L1022.57 872.96L1047.21 927.08L1072.18 872.96L1079.11 924H1087.47L1076.03 846.45L1047.32 908.49L1019.16 846.56L1006.95 924H1015.31Z" fill="#BCAB33"/>
<path id="&#226;&#128;&#152;" d="M1130.16 850.63L1124.99 848.54L1113.88 873.4L1121.03 876.04L1130.16 850.63Z" fill="#BCAB33"/>
<path id="S" d="M1198.76 860.86C1197.11 857.67 1194.58 854.7 1191.61 852.72C1187.98 850.3 1184.35 849.42 1179.84 849.42C1167.96 849.42 1159.27 857.01 1159.27 868.34C1159.27 873.84 1161.14 877.25 1164.33 880.33C1167.63 883.52 1171.26 885.06 1174.12 886.38L1180.72 889.46C1184.57 891.22 1187.43 892.54 1189.52 894.52C1192.16 896.94 1193.15 899.8 1193.15 903.1C1193.15 910.47 1188.42 917.62 1178.41 917.62C1174.67 917.62 1171.04 916.74 1167.85 913.55C1165.76 911.35 1164 908.05 1163.45 904.2L1155.53 906.4C1156.52 910.8 1158.72 915.86 1162.35 919.38C1167.41 924.33 1173.46 925.32 1178.3 925.32C1191.5 925.32 1201.51 916.3 1201.51 902.77C1201.51 897.49 1199.97 893.2 1196.23 889.46C1193.15 886.38 1189.19 884.4 1184.9 882.53L1177.86 879.45C1175.11 878.24 1172.36 877.03 1170.16 874.83C1168.18 872.96 1167.41 871.31 1167.41 868.45C1167.41 861.63 1172.47 857.12 1179.73 857.12C1183.91 857.12 1186.55 858.55 1187.98 859.65C1189.63 860.97 1191.28 863.17 1192.27 865.15L1198.76 860.86Z" fill="#BCAB33"/>
<path id="G" d="M685.62 1035.85H707.4C707.18 1040.47 705.75 1043.99 704.43 1046.3C700.25 1053.67 691.78 1058.62 681.99 1058.62C668.13 1058.62 652.18 1048.5 652.18 1028.48C652.18 1011.43 664.5 998.12 682.21 998.12C691.01 998.12 696.51 1001.42 700.03 1004.28C702.45 1006.26 704.87 1008.9 706.96 1011.87L713.01 1006.37C710.92 1003.51 707.84 1000.21 704.54 997.68C697.39 992.18 689.14 990.42 682.1 990.42C660.21 990.42 643.82 1007.03 643.82 1028.37C643.82 1049.71 660.1 1066.32 681.88 1066.32C698.71 1066.32 706.96 1056.09 709.16 1053.12C713.78 1046.85 716.2 1038.05 716.2 1029.91V1028.15H685.62V1035.85Z" fill="#BCAB33"/>
<path id="A_3" d="M794.806 1065H803.826L770.936 988.11L737.166 1065H746.186L754.986 1044.32H786.226L794.806 1065ZM758.176 1036.62L770.716 1007.25L783.036 1036.62H758.176Z" fill="#BCAB33"/>
<path id="R_3" d="M828.853 991.63V1065H836.993V1032.88H839.083L861.413 1065H871.313L847.993 1032.22C859.103 1031.45 866.473 1023.2 866.473 1011.98C866.473 1004.17 862.733 998.56 858.443 995.7C852.943 991.96 845.573 991.63 840.623 991.63H828.853ZM836.993 999.33H841.943C845.463 999.33 849.203 999.55 852.503 1001.42C857.123 1004.06 858.333 1008.13 858.333 1012.2C858.333 1020.78 852.283 1025.62 842.163 1025.62H836.993V999.33Z" fill="#BCAB33"/>
<path id="D" d="M898.709 1065H913.559C926.649 1065 933.689 1062.25 940.399 1056.53C945.679 1052.02 953.269 1043.77 953.269 1028.37C953.269 1015.17 947.439 1005.82 940.729 1000.21C931.489 992.4 921.039 991.63 913.669 991.63H898.709V1065ZM906.849 999.33H913.999C932.589 999.33 944.909 1010.77 944.909 1028.37C944.909 1038.82 940.509 1046.08 935.009 1050.7C927.859 1056.64 919.829 1057.3 913.999 1057.3H906.849V999.33Z" fill="#BCAB33"/>
<path id="E" d="M1020.99 991.63H982.927V1065H1020.99V1057.3H991.067V1028.81H1020.11V1021.11H991.067V999.33H1020.99V991.63Z" fill="#BCAB33"/>
<path id="N" d="M1059.99 1065V1008.35L1117.19 1068.3V991.63H1109.05V1048.5L1051.85 988.55V1065H1059.99Z" fill="#BCAB33"/>
</g>
</svg>
