<svg width="1728" height="1271" viewBox="0 0 1728 1271" fill="none" xmlns="http://www.w3.org/2000/svg">
<g id="Frame 1">
<rect width="1728" height="1271" fill="white"/>
<path id="Layer1" fill-rule="evenodd" clip-rule="evenodd" d="M864.005 528L1066.89 608.455H1067.77L1067.33 608.629L1067.77 608.803H1066.89L1066.39 609H1067V691H1066.62L1066.65 691.012H1067.52L1067.08 691.186L1067.52 691.359H1066.65L863.761 771.814L660.876 691.359H660L660.438 691.186L660 691.012H660.877L661 690.963V609H661.618L661.12 608.803H660.244L660.682 608.629L660.243 608.455H661.12L864.005 528Z" fill="#F3E3BF"/>
<path id="Jam" fill-rule="evenodd" clip-rule="evenodd" d="M864.005 504L1066.89 584.455H1067.77L1067.33 584.629L1067.77 584.803H1066.89L1066.39 585H1067V613.012H1067.52L1067.08 613.186L1067.52 613.359H1067V614H1065.03L863.761 693.814L662.492 614H661V613.408L660.876 613.359H660L660.438 613.186L660 613.012H660.877L661 612.963V585H661.617L661.12 584.803H660.243L660.682 584.629L660.243 584.455H661.12L864.005 504Z" fill="#EB5280"/>
<path id="Icing1" fill-rule="evenodd" clip-rule="evenodd" d="M1066.89 556.455L864.005 476L661.12 556.455H660.243L660.682 556.629L660.243 556.803H661.12L661.617 557H661V584.963L660.877 585.012H660L660.438 585.186L660 585.359H660.876L661 585.408V585.934H660.522L864.283 666.737L1067.88 586H1068V585.952L1068.04 585.934H1068V557H1066.39L1066.89 556.803H1067.77L1067.33 556.629L1067.77 556.455H1066.89Z" fill="#ECECFF"/>
<path id="Layer2" fill-rule="evenodd" clip-rule="evenodd" d="M864.005 396L1066.89 476.455H1067.77L1067.33 476.629L1067.77 476.803H1066.89L1066.39 477H1067V559H1066.62L1066.65 559.012H1067.52L1067.08 559.186L1067.52 559.359H1066.65L863.761 639.814L660.876 559.359H660L660.438 559.186L660 559.012H660.877L661 558.963V477H661.618L661.12 476.803H660.244L660.682 476.629L660.243 476.455H661.12L864.005 396Z" fill="#F3E3BF"/>
<path id="Icing2" fill-rule="evenodd" clip-rule="evenodd" d="M1065.5 477L1066.65 477.455H1067.52L1067.08 477.629L1067.52 477.803H1066.65L863.761 558.258L660.876 477.803H660L660.438 477.629L660 477.455H660.877L863.762 397L1017.24 457.864V448H1066.24V477H1065.5Z" fill="#ECECFF"/>
<path id="Icingtop" d="M1066.65 447.455L863.761 367L660.877 447.455H660L660.438 447.629L660 447.803H660.876L863.761 528.258L1066.65 447.803H1067.52L1067.08 447.629L1067.52 447.455H1066.65Z" fill="#F6F6FF"/>
<path id="Layer1side" d="M864 772L661 691.5V609.5L864 690V772Z" fill="#FFF7E3"/>
<path id="Jamside" d="M661 613.5V585.5L864 666V694L661 613.5Z" fill="#FF86AA"/>
<path id="Icing1side" d="M661 586V558L864 638.5V666.5L661 586Z" fill="#F1F1FE"/>
<path id="Layer2side" d="M864 639.5L661 559V477L864 557.5V639.5Z" fill="#FFF7E3"/>
<path id="Icing2side" d="M661 476V448L864 528.5V556.5L661 476Z" fill="#F1F1FE"/>
<g id="Rightberry">
<path d="M939 414.258C939 436.35 921.315 454.258 899.5 454.258C877.685 454.258 860 436.35 860 414.258C860 392.167 877.685 374.258 899.5 374.258C921.315 374.258 939 392.167 939 414.258Z" fill="#8297DF"/>
<path d="M926.031 393.667C931.229 399.789 934.571 407.248 935.727 415.151C936.226 418.566 933.416 421.379 930.008 421.379C926.599 421.379 923.903 418.55 923.201 415.172C921.102 405.07 913.984 396.839 904.612 393.28C901.42 392.068 899.059 388.944 899.569 385.532C900.079 382.122 903.243 379.732 906.5 380.742C914.046 383.082 920.831 387.544 926.031 393.667Z" fill="#B9C6F4"/>
</g>
<g id="Leftberry">
<path d="M868 414.258C868 436.35 850.315 454.258 828.5 454.258C806.685 454.258 789 436.35 789 414.258C789 392.167 806.685 374.258 828.5 374.258C850.315 374.258 868 392.167 868 414.258Z" fill="#8297DF"/>
<path d="M855.031 393.667C860.229 399.789 863.571 407.248 864.727 415.151C865.226 418.566 862.416 421.379 859.008 421.379C855.599 421.379 852.903 418.55 852.201 415.172C850.102 405.07 842.984 396.839 833.612 393.28C830.42 392.068 828.059 388.944 828.569 385.532C829.079 382.122 832.243 379.732 835.5 380.742C843.046 383.082 849.831 387.544 855.031 393.667Z" fill="#B9C6F4"/>
</g>
<path id="Leaf" d="M854.73 410.959L862.898 386.042C871.051 361.166 897.827 347.61 922.703 355.764L914.536 380.681C906.383 405.557 879.607 419.113 854.73 410.959Z" fill="#31673D"/>
<g id="Centerbery">
<path d="M907 444.758C907 466.574 889.315 484.258 867.5 484.258C845.685 484.258 828 466.574 828 444.758C828 422.943 845.685 405.258 867.5 405.258C889.315 405.258 907 422.943 907 444.758Z" fill="#8297DF"/>
<path d="M894.031 424.425C899.229 430.47 902.571 437.836 903.727 445.64C904.226 449.012 901.416 451.79 898.008 451.79C894.599 451.79 891.903 448.996 891.201 445.661C889.102 435.685 881.984 427.557 872.612 424.042C869.42 422.846 867.059 419.761 867.569 416.391C868.079 413.024 871.243 410.664 874.5 411.661C882.046 413.972 888.831 418.378 894.031 424.425Z" fill="#B9C6F4"/>
</g>
<path id="FAQ" d="M1204.31 775.729L1223.93 767.602V777.252L1215.9 780.58V789.724L1223.05 786.761V795.935L1215.9 798.898V819.152L1204.31 823.951V775.729ZM1246.77 758.141L1253.4 803.616L1241.54 808.529L1240.97 800.101L1236.81 801.822L1236.12 810.774L1224.12 815.744L1230.01 765.083L1246.77 758.141ZM1240.64 791.689C1240.05 786.472 1239.46 779.973 1238.87 772.194C1237.7 781.894 1236.97 788.94 1236.67 793.33L1240.64 791.689ZM1281.88 791.819V797.657L1273.13 801.281C1271.02 802.155 1269.54 802.592 1268.68 802.592C1267.81 802.611 1267.23 802.338 1266.91 801.773C1266.62 801.199 1266.47 800.009 1266.47 798.202C1263.85 799.209 1261.59 799.399 1259.71 798.772C1257.82 798.145 1256.57 796.875 1255.96 794.961C1255.36 793.027 1255.05 789.896 1255.05 785.568V770.645C1255.05 767.369 1255.23 764.805 1255.58 762.952C1255.94 761.073 1256.69 759.147 1257.81 757.174C1258.93 755.182 1260.37 753.434 1262.13 751.93C1263.89 750.426 1265.84 749.229 1267.99 748.34C1270.57 747.269 1272.88 746.792 1274.89 746.909C1276.93 747.019 1278.44 747.603 1279.44 748.662C1280.44 749.713 1281.1 750.973 1281.39 752.44C1281.7 753.879 1281.86 756.158 1281.86 759.275V774.942C1281.86 779.231 1281.66 782.22 1281.28 783.909C1280.89 785.597 1280.15 787.126 1279.05 788.495C1277.97 789.837 1276.52 791.123 1274.7 792.351C1274.76 793.401 1274.96 793.993 1275.31 794.126C1275.67 794.252 1276.53 794.038 1277.87 793.483L1281.88 791.819ZM1270.27 760.797C1270.27 758.554 1270.15 757.173 1269.91 756.657C1269.69 756.112 1269.23 755.988 1268.51 756.285C1267.91 756.536 1267.44 756.987 1267.11 757.64C1266.8 758.266 1266.64 759.82 1266.64 762.302V784.82C1266.64 787.619 1266.74 789.305 1266.94 789.877C1267.16 790.441 1267.66 790.563 1268.43 790.244C1269.22 789.917 1269.72 789.331 1269.94 788.486C1270.16 787.64 1270.27 785.797 1270.27 782.958V760.797Z" fill="#F3E3BF"/>
<path id="Profile" d="M1204.31 693.245L1215.98 688.412C1219.13 687.105 1221.56 686.371 1223.24 686.208C1224.95 686.037 1226.22 686.283 1227.07 686.946C1227.93 687.602 1228.51 688.594 1228.8 689.922C1229.11 691.222 1229.27 693.382 1229.27 696.4V700.6C1229.27 703.677 1228.98 706.043 1228.39 707.696C1227.8 709.349 1226.72 710.879 1225.14 712.287C1223.58 713.688 1221.54 714.912 1219.01 715.961L1215.9 717.249V736.669L1204.31 741.468V693.245ZM1215.9 696.697V708.969C1216.23 708.852 1216.51 708.744 1216.75 708.645C1217.81 708.204 1218.55 707.622 1218.95 706.899C1219.37 706.149 1219.58 704.88 1219.58 703.093V699.131C1219.58 697.483 1219.35 696.51 1218.87 696.211C1218.39 695.912 1217.4 696.074 1215.9 696.697ZM1243.39 685.757L1242.95 691.122C1244.56 686.74 1246.9 683.805 1249.96 682.318V696.228C1247.93 697.071 1246.43 697.988 1245.48 698.979C1244.52 699.97 1243.94 701.047 1243.72 702.211C1243.5 703.354 1243.39 705.842 1243.39 709.675V725.282L1232.27 729.887V690.362L1243.39 685.757ZM1277.62 685.457V695.138C1277.62 698.692 1277.45 701.372 1277.12 703.176C1276.79 704.961 1276.09 706.803 1275 708.7C1273.92 710.578 1272.53 712.218 1270.82 713.62C1269.13 714.994 1267.19 716.137 1264.99 717.049C1262.53 718.067 1260.45 718.642 1258.74 718.773C1257.04 718.884 1255.71 718.551 1254.75 717.775C1253.82 716.971 1253.15 715.818 1252.74 714.318C1252.34 712.797 1252.14 710.359 1252.14 707.003V696.876C1252.14 693.203 1252.5 690.181 1253.24 687.812C1253.97 685.443 1255.29 683.238 1257.2 681.197C1259.11 679.155 1261.55 677.519 1264.52 676.288C1267.02 675.255 1269.15 674.777 1270.93 674.854C1272.73 674.903 1274.12 675.372 1275.09 676.26C1276.06 677.148 1276.72 678.205 1277.07 679.431C1277.44 680.649 1277.62 682.658 1277.62 685.457ZM1266.5 687.084C1266.5 685.058 1266.4 683.829 1266.2 683.397C1266 682.944 1265.57 682.855 1264.91 683.128C1264.25 683.402 1263.81 683.852 1263.59 684.48C1263.36 685.087 1263.25 686.403 1263.25 688.429V706.27C1263.25 708.137 1263.36 709.312 1263.59 709.797C1263.81 710.262 1264.24 710.361 1264.88 710.095C1265.54 709.822 1265.97 709.385 1266.17 708.785C1266.39 708.178 1266.5 707.02 1266.5 705.312V687.084ZM1295.48 655.483V661.589C1293.19 662.539 1291.83 663.22 1291.41 663.633C1291 664.019 1290.8 664.748 1290.8 665.82V667.071L1295.48 665.133V671.388L1292.84 672.482V704.799L1281.72 709.404V677.087L1279.44 678.033V671.778L1281.72 670.832C1281.72 668.231 1281.8 666.459 1281.97 665.517C1282.13 664.575 1282.54 663.634 1283.18 662.693C1283.84 661.724 1284.76 660.818 1285.93 659.974C1287.1 659.13 1288.93 658.196 1291.41 657.17L1295.48 655.483ZM1309.04 649.863V656.148L1297.6 660.89V654.605L1309.04 649.863ZM1309.04 658.561V698.086L1297.6 702.827V663.302L1309.04 658.561ZM1324.51 643.458V691.68L1313.06 696.422V648.199L1324.51 643.458ZM1353.71 660.524L1339.31 666.485V675.033C1339.31 676.82 1339.43 677.923 1339.67 678.34C1339.91 678.758 1340.37 678.826 1341.05 678.545C1341.89 678.195 1342.45 677.626 1342.73 676.837C1343.02 676.02 1343.17 674.629 1343.17 672.663V667.451L1353.71 663.085V666.004C1353.71 668.447 1353.56 670.384 1353.27 671.816C1352.99 673.241 1352.33 674.914 1351.28 676.836C1350.24 678.759 1348.91 680.432 1347.29 681.855C1345.7 683.251 1343.69 684.45 1341.27 685.453C1338.92 686.426 1336.85 686.917 1335.05 686.927C1333.25 686.937 1331.85 686.516 1330.84 685.663C1329.85 684.782 1329.16 683.657 1328.77 682.288C1328.39 680.899 1328.2 678.735 1328.2 675.796V664.269C1328.2 660.814 1328.63 657.915 1329.49 655.572C1330.35 653.21 1331.77 651.096 1333.73 649.23C1335.69 647.345 1337.95 645.874 1340.5 644.818C1343.62 643.526 1346.18 643.107 1348.2 643.562C1350.24 643.99 1351.66 645.098 1352.47 646.889C1353.29 648.652 1353.71 651.449 1353.71 655.282V660.524ZM1342.56 658.706V655.817C1342.56 653.772 1342.46 652.493 1342.26 651.981C1342.06 651.469 1341.64 651.342 1341.02 651.601C1340.25 651.92 1339.77 652.375 1339.59 652.968C1339.41 653.54 1339.31 654.938 1339.31 657.162V660.051L1342.56 658.706Z" fill="#EB5280"/>
<path id="Rewards" d="M1204.31 666.245L1212.51 662.849C1217.98 660.584 1221.68 659.281 1223.6 658.94C1225.55 658.591 1227.12 659.109 1228.33 660.494C1229.56 661.852 1230.18 664.586 1230.18 668.696C1230.18 672.449 1229.75 675.149 1228.88 676.797C1228.02 678.445 1226.33 679.922 1223.79 681.229C1226.09 680.895 1227.63 681.081 1228.42 681.786C1229.21 682.492 1229.69 683.244 1229.88 684.042C1230.08 684.812 1230.18 687.143 1230.18 691.035V703.753L1219.42 708.21V692.185C1219.42 689.604 1219.23 688.085 1218.84 687.629C1218.47 687.166 1217.49 687.265 1215.9 687.926V709.669L1204.31 714.468V666.245ZM1215.9 669.697V680.42C1217.2 679.88 1218.11 679.316 1218.62 678.725C1219.15 678.108 1219.42 676.737 1219.42 674.612V671.961C1219.42 670.432 1219.16 669.536 1218.65 669.272C1218.15 669.001 1217.24 669.142 1215.9 669.697ZM1259.54 672.529L1245.15 678.49V687.038C1245.15 688.825 1245.27 689.928 1245.51 690.345C1245.74 690.763 1246.2 690.831 1246.88 690.55C1247.73 690.2 1248.29 689.631 1248.56 688.842C1248.85 688.025 1249 686.634 1249 684.668V679.456L1259.54 675.09V678.009C1259.54 680.452 1259.39 682.389 1259.1 683.821C1258.82 685.245 1258.16 686.919 1257.12 688.841C1256.07 690.764 1254.74 692.437 1253.13 693.86C1251.53 695.256 1249.52 696.455 1247.1 697.458C1244.75 698.431 1242.68 698.922 1240.88 698.932C1239.08 698.942 1237.68 698.521 1236.67 697.668C1235.68 696.787 1234.99 695.662 1234.61 694.293C1234.22 692.904 1234.03 690.74 1234.03 687.801V676.274C1234.03 672.819 1234.46 669.92 1235.32 667.577C1236.19 665.215 1237.6 663.1 1239.56 661.235C1241.52 659.35 1243.78 657.879 1246.33 656.823C1249.45 655.531 1252.02 655.112 1254.04 655.567C1256.07 655.994 1257.49 657.103 1258.3 658.894C1259.13 660.657 1259.54 663.454 1259.54 667.286V672.529ZM1248.4 670.711V667.822C1248.4 665.777 1248.29 664.498 1248.09 663.986C1247.89 663.474 1247.48 663.347 1246.85 663.606C1246.08 663.925 1245.61 664.38 1245.42 664.973C1245.24 665.545 1245.15 666.943 1245.15 669.167V672.056L1248.4 670.711ZM1299.11 635.676L1294.68 677.036L1282.6 682.039C1281.94 677.488 1281.18 671.449 1280.32 663.923C1280.02 667.5 1279.61 671.165 1279.08 674.92L1277.84 684.011L1265.76 689.015L1261.05 651.439L1270.63 647.473C1270.7 648.475 1271.51 655.676 1273.05 669.077C1273.16 667.601 1273.99 659.724 1275.53 645.444L1284.75 641.625L1287 663.298C1287.35 656.561 1288.2 648.676 1289.53 639.642L1299.11 635.676ZM1310.89 646.107L1300.46 650.427V647.776C1300.46 644.718 1300.78 642.232 1301.42 640.318C1302.08 638.376 1303.39 636.363 1305.36 634.28C1307.32 632.196 1309.87 630.504 1313.01 629.205C1316.77 627.647 1319.6 627.198 1321.51 627.857C1323.42 628.496 1324.56 629.789 1324.95 631.734C1325.34 633.659 1325.53 637.888 1325.53 644.421V664.258L1314.71 668.738V665.223C1314.03 666.914 1313.15 668.341 1312.07 669.504C1311.01 670.64 1309.73 671.516 1308.25 672.131C1306.3 672.937 1304.51 673.092 1302.88 672.596C1301.27 672.074 1300.46 669.817 1300.46 665.826V662.579C1300.46 659.62 1300.89 657.426 1301.75 655.997C1302.61 654.567 1304.75 652.431 1308.16 649.588C1311.81 646.527 1313.77 644.675 1314.03 644.033C1314.28 643.39 1314.41 642.245 1314.41 640.597C1314.41 638.532 1314.26 637.252 1313.97 636.758C1313.7 636.237 1313.23 636.113 1312.57 636.386C1311.81 636.698 1311.35 637.16 1311.16 637.772C1310.98 638.364 1310.89 639.762 1310.89 641.967V646.107ZM1314.41 650.069C1312.63 652.215 1311.59 653.826 1311.3 654.901C1311.03 655.968 1310.89 657.395 1310.89 659.182C1310.89 661.228 1311.01 662.499 1311.25 662.996C1311.5 663.485 1312 663.578 1312.73 663.274C1313.43 662.985 1313.88 662.57 1314.08 662.03C1314.3 661.462 1314.41 660.186 1314.41 658.2V650.069ZM1340.47 618.544L1340.03 623.909C1341.64 619.527 1343.98 616.592 1347.05 615.105V629.015C1345.01 629.858 1343.52 630.775 1342.56 631.766C1341.61 632.757 1341.02 633.834 1340.8 634.997C1340.58 636.141 1340.47 638.629 1340.47 642.461V658.069L1329.35 662.674V623.149L1340.47 618.544ZM1374.84 595.61V643.832L1363.72 648.437V645.578C1362.66 647.21 1361.54 648.567 1360.37 649.649C1359.19 650.731 1357.96 651.538 1356.68 652.07C1354.95 652.784 1353.46 652.917 1352.19 652.469C1350.93 652 1350.11 651.196 1349.74 650.058C1349.4 648.911 1349.22 646.879 1349.22 643.96V625.463C1349.22 622.425 1349.4 620.198 1349.74 618.783C1350.11 617.36 1350.94 615.907 1352.22 614.421C1353.5 612.917 1355.04 611.796 1356.82 611.058C1358.19 610.489 1359.45 610.236 1360.59 610.301C1361.74 610.359 1362.79 610.73 1363.72 611.414V600.215L1374.84 595.61ZM1363.72 618.861C1363.72 617.411 1363.6 616.487 1363.36 616.09C1363.14 615.685 1362.7 615.623 1362.02 615.904C1361.36 616.177 1360.91 616.592 1360.67 617.147C1360.45 617.675 1360.34 618.714 1360.34 620.263V639.623C1360.34 641.231 1360.45 642.248 1360.67 642.673C1360.89 643.078 1361.31 643.152 1361.93 642.893C1362.65 642.597 1363.13 642.122 1363.36 641.467C1363.6 640.792 1363.72 639.353 1363.72 637.149V618.861ZM1401.53 605.88L1391.68 609.961V607.816C1391.68 605.989 1391.58 604.879 1391.38 604.486C1391.19 604.066 1390.72 604.015 1389.95 604.334C1389.32 604.593 1388.86 605.015 1388.54 605.601C1388.23 606.167 1388.08 606.897 1388.08 607.79C1388.08 609.001 1388.15 609.865 1388.3 610.38C1388.46 610.867 1388.93 611.289 1389.7 611.645C1390.49 611.993 1392.09 612.311 1394.52 612.599C1397.74 612.969 1399.86 613.7 1400.87 614.791C1401.88 615.882 1402.39 617.868 1402.39 620.747C1402.39 623.964 1402 626.556 1401.23 628.523C1400.46 630.47 1399.17 632.267 1397.35 633.913C1395.55 635.531 1393.38 636.869 1390.83 637.925C1388 639.095 1385.58 639.622 1383.56 639.504C1381.56 639.379 1380.19 638.659 1379.44 637.342C1378.68 636.025 1378.31 633.719 1378.31 630.423V628.516L1388.16 624.436V626.938C1388.16 629.062 1388.28 630.393 1388.52 630.93C1388.77 631.459 1389.27 631.571 1390 631.267C1390.79 630.94 1391.34 630.504 1391.65 629.958C1391.97 629.392 1392.12 628.424 1392.12 627.054C1392.12 625.167 1391.92 624.069 1391.52 623.76C1391.09 623.458 1388.94 622.941 1385.05 622.209C1381.78 621.576 1379.79 620.603 1379.08 619.291C1378.36 617.959 1378 616.182 1378 613.958C1378 610.8 1378.39 608.318 1379.16 606.509C1379.93 604.681 1381.23 602.98 1383.07 601.406C1384.92 599.824 1387.07 598.528 1389.51 597.517C1391.93 596.514 1393.98 596.001 1395.67 595.977C1397.38 595.925 1398.68 596.26 1399.58 596.979C1400.5 597.692 1401.05 598.476 1401.23 599.334C1401.43 600.183 1401.53 601.601 1401.53 603.587V605.88Z" fill="#ECECFF"/>
<path id="Orders" d="M1237.69 660.634C1237.59 666.828 1237.37 671.277 1237.05 673.979C1236.75 676.647 1235.86 679.334 1234.38 682.04C1232.93 684.737 1230.98 687.142 1228.54 689.253C1226.09 691.365 1223.25 693.065 1220.02 694.354C1216.95 695.577 1214.2 696.145 1211.77 696.057C1209.36 695.934 1207.43 695.091 1205.98 693.525C1204.53 691.96 1203.68 689.965 1203.44 687.539C1203.2 685.113 1203.13 680.727 1203.24 674.38L1203.41 663.832C1203.51 657.637 1203.72 653.206 1204.02 650.539C1204.34 647.836 1205.23 645.137 1206.68 642.439C1208.16 639.733 1210.12 637.324 1212.57 635.213C1215.01 633.101 1217.85 631.401 1221.08 630.112C1224.15 628.889 1226.89 628.338 1229.3 628.461C1231.73 628.549 1233.68 629.375 1235.13 630.94C1236.58 632.505 1237.42 634.501 1237.66 636.927C1237.9 639.353 1237.97 643.739 1237.87 650.086L1237.69 660.634ZM1223.13 646.317C1223.18 643.448 1223.06 641.681 1222.77 641.016C1222.5 640.317 1221.9 640.151 1220.98 640.518C1220.2 640.828 1219.6 641.398 1219.16 642.228C1218.75 643.022 1218.52 645.006 1218.46 648.18L1217.99 676.969C1217.93 680.548 1218.02 682.705 1218.27 683.439C1218.54 684.164 1219.17 684.329 1220.16 683.934C1221.17 683.529 1221.83 682.788 1222.13 681.711C1222.42 680.633 1222.6 678.279 1222.66 674.649L1223.13 646.317ZM1257.56 627.891L1256.89 634.743C1259.04 629.167 1262.09 625.454 1266.03 623.604L1265.74 641.388C1263.12 642.432 1261.19 643.58 1259.95 644.83C1258.71 646.081 1257.94 647.449 1257.63 648.932C1257.33 650.391 1257.14 653.57 1257.05 658.47L1256.72 678.424L1242.43 684.126L1243.27 633.593L1257.56 627.891ZM1301.93 599.144L1300.91 660.797L1286.61 666.498L1286.68 662.843C1285.28 664.912 1283.82 666.628 1282.3 667.992C1280.78 669.356 1279.19 670.367 1277.54 671.025C1275.33 671.91 1273.42 672.055 1271.81 671.46C1270.2 670.84 1269.18 669.799 1268.73 668.337C1268.31 666.865 1268.13 664.264 1268.19 660.532L1268.59 636.884C1268.65 632.999 1268.92 630.155 1269.4 628.352C1269.89 626.539 1270.98 624.694 1272.65 622.817C1274.32 620.914 1276.3 619.506 1278.59 618.594C1280.36 617.888 1281.97 617.586 1283.42 617.689C1284.89 617.781 1286.22 618.273 1287.4 619.164L1287.64 604.846L1301.93 599.144ZM1287.24 628.684C1287.27 626.831 1287.14 625.648 1286.84 625.136C1286.57 624.614 1286 624.527 1285.13 624.875C1284.28 625.214 1283.69 625.737 1283.38 626.443C1283.09 627.114 1282.92 628.44 1282.89 630.42L1282.48 655.173C1282.45 657.229 1282.57 658.531 1282.84 659.078C1283.11 659.6 1283.65 659.701 1284.45 659.381C1285.37 659.014 1285.99 658.414 1286.31 657.581C1286.62 656.722 1286.81 654.884 1286.85 652.066L1287.24 628.684ZM1338.81 621.465L1320.31 628.846L1320.13 639.776C1320.09 642.06 1320.22 643.472 1320.51 644.01C1320.81 644.547 1321.39 644.642 1322.26 644.294C1323.35 643.861 1324.08 643.143 1324.44 642.138C1324.84 641.099 1325.05 639.323 1325.09 636.81L1325.2 630.146L1338.75 624.74L1338.69 628.472C1338.64 631.595 1338.41 634.069 1338.01 635.895C1337.62 637.712 1336.75 639.84 1335.37 642.281C1333.99 644.721 1332.26 646.838 1330.17 648.63C1328.1 650.388 1325.51 651.888 1322.4 653.13C1319.38 654.334 1316.72 654.928 1314.43 654.911C1312.13 654.893 1310.35 654.331 1309.08 653.224C1307.83 652.082 1306.98 650.632 1306.52 648.875C1306.05 647.092 1305.85 644.322 1305.92 640.565L1306.16 625.828C1306.23 621.41 1306.84 617.711 1308 614.73C1309.15 611.724 1310.99 609.045 1313.54 606.692C1316.09 604.315 1319 602.472 1322.28 601.164C1326.29 599.565 1329.57 599.073 1332.14 599.688C1334.73 600.268 1336.52 601.71 1337.52 604.012C1338.53 606.28 1339 609.863 1338.92 614.763L1338.81 621.465ZM1324.62 618.956L1324.68 615.262C1324.72 612.647 1324.62 611.01 1324.37 610.352C1324.13 609.694 1323.6 609.525 1322.8 609.845C1321.81 610.24 1321.19 610.815 1320.94 611.569C1320.7 612.298 1320.55 614.084 1320.5 616.927L1320.44 620.621L1324.62 618.956ZM1358.24 587.725L1357.56 594.577C1359.72 589.002 1362.76 585.289 1366.71 583.438L1366.41 601.222C1363.79 602.266 1361.87 603.414 1360.63 604.665C1359.39 605.916 1358.62 607.283 1358.31 608.767C1358 610.225 1357.81 613.404 1357.73 618.304L1357.4 638.258L1343.11 643.96L1343.95 593.427L1358.24 587.725ZM1398.83 587.571L1386.16 592.623L1386.21 589.882C1386.25 587.546 1386.14 586.125 1385.89 585.619C1385.67 585.079 1385.06 585.006 1384.07 585.401C1383.27 585.721 1382.66 586.253 1382.25 586.997C1381.84 587.715 1381.63 588.646 1381.61 589.788C1381.58 591.337 1381.66 592.442 1381.83 593.103C1382.03 593.729 1382.62 594.276 1383.6 594.744C1384.6 595.202 1386.64 595.636 1389.73 596.044C1393.84 596.571 1396.53 597.541 1397.8 598.953C1399.06 600.365 1399.66 602.911 1399.6 606.593C1399.53 610.705 1398.99 614.013 1397.96 616.515C1396.94 618.992 1395.25 621.267 1392.89 623.341C1390.56 625.38 1387.76 627.054 1384.48 628.362C1380.85 629.811 1377.75 630.443 1375.17 630.26C1372.62 630.067 1370.88 629.122 1369.95 627.426C1369.02 625.73 1368.58 622.775 1368.65 618.561L1368.7 616.124L1381.36 611.071L1381.31 614.27C1381.26 616.986 1381.39 618.69 1381.68 619.38C1381.99 620.06 1382.62 620.212 1383.57 619.836C1384.58 619.432 1385.29 618.883 1385.7 618.19C1386.11 617.471 1386.33 616.236 1386.36 614.484C1386.4 612.073 1386.17 610.666 1385.66 610.263C1385.13 609.87 1382.39 609.173 1377.44 608.172C1373.28 607.308 1370.76 606.032 1369.87 604.342C1368.99 602.627 1368.57 600.348 1368.62 597.505C1368.68 593.468 1369.23 590.301 1370.25 588.001C1371.27 585.677 1372.97 583.524 1375.35 581.542C1377.75 579.551 1380.51 577.929 1383.65 576.678C1386.76 575.436 1389.4 574.814 1391.55 574.812C1393.73 574.774 1395.39 575.223 1396.52 576.159C1397.68 577.084 1398.36 578.097 1398.58 579.196C1398.82 580.286 1398.92 582.1 1398.88 584.639L1398.83 587.571Z" fill="#F3E3BF"/>
<path id="Menu" d="M1250.21 538.777L1249.19 600.43L1236.17 605.624L1236.86 564.001L1230.97 607.698L1221.74 611.382L1216.93 572.899L1216.25 613.569L1203.24 618.763L1204.26 557.11L1223.54 549.419C1224.04 552.899 1224.57 557.026 1225.13 561.799L1226.92 576.669L1230.79 546.525L1250.21 538.777ZM1287.51 560.929L1269.01 568.31L1268.83 579.24C1268.79 581.524 1268.92 582.936 1269.22 583.473C1269.51 584.011 1270.1 584.106 1270.97 583.758C1272.06 583.325 1272.78 582.607 1273.15 581.602C1273.54 580.563 1273.76 578.787 1273.8 576.274L1273.91 569.609L1287.46 564.204L1287.4 567.936C1287.35 571.059 1287.12 573.533 1286.71 575.359C1286.33 577.176 1285.45 579.304 1284.08 581.745C1282.7 584.185 1280.97 586.301 1278.88 588.094C1276.81 589.852 1274.22 591.352 1271.11 592.594C1268.09 593.798 1265.43 594.392 1263.13 594.374C1260.84 594.357 1259.06 593.795 1257.79 592.688C1256.54 591.546 1255.69 590.096 1255.22 588.339C1254.76 586.556 1254.56 583.786 1254.62 580.029L1254.87 565.292C1254.94 560.874 1255.55 557.175 1256.7 554.194C1257.85 551.188 1259.7 548.509 1262.25 546.156C1264.79 543.779 1267.71 541.936 1270.98 540.628C1274.99 539.029 1278.28 538.536 1280.85 539.152C1283.44 539.732 1285.23 541.174 1286.22 543.476C1287.24 545.744 1287.71 549.327 1287.63 554.227L1287.51 560.929ZM1273.32 558.42L1273.39 554.726C1273.43 552.111 1273.33 550.474 1273.08 549.816C1272.83 549.158 1272.31 548.989 1271.51 549.309C1270.52 549.704 1269.9 550.279 1269.65 551.033C1269.4 551.762 1269.26 553.548 1269.21 556.391L1269.15 560.085L1273.32 558.42ZM1307.19 527.09L1306.87 531.835C1307.94 529.568 1309.22 527.681 1310.72 526.174C1312.25 524.633 1313.99 523.471 1315.94 522.69C1318.4 521.712 1320.39 521.534 1321.93 522.157C1323.46 522.78 1324.44 523.954 1324.86 525.68C1325.27 527.379 1325.44 530.438 1325.37 534.855L1324.78 570.271L1310.49 575.972L1311.07 540.976C1311.13 537.498 1311.06 535.42 1310.86 534.744C1310.66 534.067 1310.08 533.921 1309.11 534.307C1308.1 534.711 1307.45 535.41 1307.18 536.402C1306.9 537.368 1306.74 539.756 1306.67 543.564L1306.11 577.722L1291.81 583.424L1292.65 532.891L1307.19 527.09ZM1363.3 504.707L1362.46 555.24L1347.92 561.041L1348.24 556.753C1347.22 558.849 1345.97 560.62 1344.49 562.067C1343.04 563.479 1341.37 564.561 1339.48 565.313C1337.34 566.17 1335.56 566.474 1334.16 566.226C1332.76 565.978 1331.73 565.318 1331.07 564.245C1330.43 563.163 1330.04 561.931 1329.9 560.55C1329.76 559.144 1329.72 556.27 1329.8 551.929L1330.36 517.846L1344.65 512.145L1344.08 546.531C1344.02 550.466 1344.09 552.76 1344.29 553.411C1344.51 554.053 1345.12 554.177 1346.11 553.782C1347.17 553.358 1347.8 552.728 1348 551.891C1348.23 551.045 1348.37 548.553 1348.44 544.415L1349 510.409L1363.3 504.707Z" fill="#ECECFF"/>
</g>
</svg>
