<svg width="1352" height="815" viewBox="0 0 1352 815" fill="none" xmlns="http://www.w3.org/2000/svg">
<g id="Frame 1">
<rect width="1352" height="815" fill="white"/>
<rect id="R1" x="749.315" y="277.001" width="6.5004" height="22.5014" rx="3.2502" transform="rotate(31.6358 749.315 277.001)" fill="#6AD8BB"/>
<rect id="R2" x="801.292" y="326.504" width="6.5004" height="22.5014" rx="3.2502" transform="rotate(52.1862 801.292 326.504)" fill="#6AD8BB"/>
<rect id="R3" x="825.518" y="403.509" width="6.5004" height="22.5014" rx="3.2502" transform="rotate(89.5929 825.518 403.509)" fill="#6AD8BB"/>
<rect id="R4" x="803.8" y="480.609" width="6.5004" height="22.5014" rx="3.2502" transform="rotate(124.042 803.8 480.609)" fill="#6AD8BB"/>
<rect id="R5" x="755.117" y="534.608" width="6.5004" height="22.5014" rx="3.2502" transform="rotate(143.52 755.117 534.608)" fill="#6AD8BB"/>
<rect id="R6" x="680.073" y="557.018" width="6.5004" height="22.5014" rx="3.2502" transform="rotate(179.839 680.073 557.018)" fill="#6AD8BB"/>
<rect id="R7" x="602.033" y="539.073" width="6.5004" height="22.5014" rx="3.2502" transform="rotate(-148.277 602.033 539.073)" fill="#6AD8BB"/>
<rect id="R8" x="548.748" y="486.883" width="6.5004" height="22.5014" rx="3.2502" transform="rotate(-119.964 548.748 486.883)" fill="#6AD8BB"/>
<rect id="R9" x="527.065" y="412.232" width="6.5004" height="22.5014" rx="3.2502" transform="rotate(-90.5689 527.065 412.232)" fill="#6AD8BB"/>
<rect id="R10" x="546.001" y="335.949" width="6.5004" height="22.5014" rx="3.2502" transform="rotate(-56.8926 546.001 335.949)" fill="#6AD8BB"/>
<rect id="R11" x="596.004" y="281.991" width="6.5004" height="22.5014" rx="3.2502" transform="rotate(-32.4711 596.004 281.991)" fill="#6AD8BB"/>
<rect id="R12" x="679.649" y="281.543" width="6.5004" height="22.5014" rx="3.2502" transform="rotate(-179.98 679.649 281.543)" fill="#6AD8BB"/>
<rect id="Longhand" x="680.981" y="410.19" width="6.5004" height="101.191" rx="3.2502" transform="rotate(179.728 680.981 410.19)" fill="#6AD8BB"/>
<rect id="Shorthand" x="680.981" y="410.19" width="6.5004" height="101.191" rx="3.2502" transform="rotate(179.728 680.981 410.19)" fill="#6AD8BB"/>
<path id="12m" d="M675.5 266C694.5 257.833 739.2 246.4 766 266C799.5 290.5 794 347.5 777 359.5C760 371.5 736.5 387 694 387C660 387 619.167 385.5 602 385.5" stroke="black"/>
<path id="Vector 1" d="M746.5 288C728.167 283.167 686.9 282.9 668.5 320.5C645.5 367.5 646.5 370 646 371C645.6 371.8 644.333 383.333 644 389" stroke="black"/>
</g>
</svg>
