<svg width="1728" height="1117" viewBox="0 0 1728 1117" fill="none" xmlns="http://www.w3.org/2000/svg">
<g id="pattern">
<rect width="1728" height="1117" fill="white"/>
<path id="Union" d="M654.22 580.04C624.014 552.974 605 513.615 605 469.803C605 388.174 671.007 322 752.431 322C797.009 322 836.966 341.835 864 373.181C891.034 341.835 930.991 322 975.569 322C1056.99 322 1123 388.174 1123 469.803C1123 510.622 1106.49 547.576 1079.81 574.324C1078.5 576.619 1076.89 578.837 1074.98 580.938L891.472 782.298C877.252 797.901 852.74 797.901 838.521 782.298L655.014 580.938C654.743 580.641 654.478 580.342 654.22 580.04Z" fill="#FC92B2"/>
<path id="Union_2" d="M683.379 576.958C657.371 553.677 641 519.821 641 482.136C641 411.921 697.832 355 767.938 355C806.32 355 840.723 372.061 864 399.024C887.277 372.061 921.68 355 960.062 355C1030.17 355 1087 411.921 1087 482.136C1087 517.247 1072.79 549.034 1049.81 572.041C1048.68 574.016 1047.3 575.923 1045.65 577.73L887.653 750.934C875.41 764.355 854.305 764.355 842.062 750.934L684.062 577.73C683.829 577.475 683.601 577.218 683.379 576.958Z" fill="#EA4E7D"/>
<path id="Union_3" d="M714.157 573.689C692.581 554.422 679 526.404 679 495.216C679 437.107 726.148 390 784.308 390C816.149 390 844.69 404.12 864 426.434C883.31 404.12 911.851 390 943.692 390C1001.85 390 1049 437.107 1049 495.216C1049 524.273 1037.21 550.58 1018.15 569.62C1017.21 571.254 1016.07 572.833 1014.7 574.329L883.622 717.67C873.466 728.777 855.957 728.777 845.801 717.67L714.724 574.329C714.531 574.117 714.342 573.904 714.157 573.689Z" fill="#FC92B2"/>
<path id="Union_4" d="M743.316 570.701C725.938 555.104 715 532.422 715 507.175C715 460.134 752.973 422 799.815 422C825.461 422 848.447 433.43 864 451.494C879.553 433.43 902.539 422 928.185 422C975.027 422 1013 460.134 1013 507.175C1013 530.697 1003.5 551.993 988.154 567.407C987.399 568.73 986.475 570.008 985.374 571.218L879.804 687.256C871.624 696.248 857.522 696.248 849.342 687.256L743.772 571.218C743.617 571.047 743.464 570.875 743.316 570.701Z" fill="#EA4E7D"/>
<path id="Union_5" d="M778.954 566.872C766.708 555.977 759 540.133 759 522.497C759 489.638 785.76 463 818.769 463C836.841 463 853.04 470.984 864 483.603C874.96 470.984 891.159 463 909.231 463C942.24 463 969 489.638 969 522.497C969 538.928 962.309 553.804 951.491 564.571C950.959 565.495 950.308 566.388 949.532 567.233L875.137 648.289C869.372 654.57 859.435 654.57 853.671 648.289L779.276 567.233C779.166 567.114 779.059 566.993 778.954 566.872Z" fill="#FC92B2"/>
<path id="Union_6" d="M810.543 563.603C802.845 556.722 798 546.716 798 535.577C798 514.824 814.82 498 835.569 498C846.929 498 857.111 503.043 864 511.012C870.889 503.043 881.071 498 892.431 498C913.18 498 930 514.824 930 535.577C930 545.955 925.794 555.35 918.994 562.15C918.66 562.734 918.251 563.298 917.763 563.832L871 615.025C867.377 618.992 861.131 618.992 857.507 615.025L810.745 563.832C810.676 563.756 810.608 563.68 810.543 563.603Z" fill="#EA4E7D"/>
</g>
</svg>
