<svg width="161" height="127" viewBox="0 0 161 127" fill="none" xmlns="http://www.w3.org/2000/svg">
<path d="M47.2108 45.7774L46.1884 107.43L33.1706 112.624L33.8608 71.0014L27.9705 114.698L18.7378 118.382L13.9291 79.8991L13.2547 120.569L0.236851 125.763L1.25918 64.1102L20.5383 56.4186C21.0429 59.8993 21.5718 64.026 22.1252 68.7986L23.9168 83.6693L27.7901 53.5254L47.2108 45.7774ZM84.5141 67.9292L66.0132 75.3104L65.832 86.2395C65.7941 88.5244 65.923 89.9357 66.2186 90.4734C66.5142 91.0112 67.0983 91.106 67.9709 90.7579C69.0557 90.3251 69.7822 89.6065 70.1502 88.6022C70.5423 87.5631 70.7592 85.7869 70.8008 83.2736L70.9114 76.6095L84.4598 71.2042L84.3979 74.9361C84.3462 78.0587 84.1177 80.5331 83.7126 82.3591C83.3311 84.1758 82.4524 86.3043 81.0766 88.7447C79.7008 91.185 77.9672 93.3015 75.8759 95.0942C73.8086 96.8521 71.2185 98.352 68.1055 99.5939C65.0869 100.798 62.4298 101.392 60.1342 101.374C57.8387 101.357 56.0558 100.795 54.7857 99.6876C53.5396 98.5455 52.6851 97.0959 52.2223 95.3386C51.7599 93.556 51.5598 90.7861 51.6221 87.0288L51.8665 72.2915C51.9397 67.8742 52.5516 64.175 53.7021 61.1941C54.853 58.1878 56.7013 55.5085 59.247 53.1563C61.7932 50.7786 64.7052 48.9359 67.9833 47.6281C71.9924 46.0286 75.2804 45.5365 77.8471 46.1517C80.4379 46.7321 82.2296 48.1735 83.2222 50.476C84.2388 52.7436 84.7065 56.3273 84.6253 61.227L84.5141 67.9292ZM70.3238 65.4196L70.3851 61.7258C70.4284 59.1109 70.3267 57.4744 70.0799 56.8163C69.8331 56.1581 69.3088 55.989 68.507 56.3089C67.5165 56.7041 66.8979 57.2788 66.6511 58.0329C66.4048 58.7617 66.258 60.5477 66.2109 63.3911L66.1496 67.0849L70.3238 65.4196ZM104.192 34.0903L103.867 38.8349C104.935 36.5677 106.22 34.6807 107.721 33.1741C109.246 31.6326 110.987 30.4714 112.944 29.6905C115.397 28.7119 117.391 28.5342 118.927 29.1572C120.463 29.7802 121.439 30.9543 121.856 32.6796C122.273 34.3795 122.444 37.4381 122.371 41.8555L121.784 77.2705L107.493 82.9722L108.073 47.976C108.131 44.498 108.06 42.4205 107.86 41.7435C107.66 41.0666 107.077 40.921 106.11 41.3068C105.096 41.7114 104.452 42.4097 104.178 43.4017C103.904 44.3684 103.736 46.7557 103.673 50.5638L103.106 84.7222L88.8148 90.4239L89.6528 39.8908L104.192 34.0903ZM160.296 11.707L159.458 62.2401L144.919 68.0406L145.236 63.7529C144.217 65.849 142.97 67.6203 141.493 69.0668C140.041 70.4785 138.371 71.5607 136.485 72.3134C134.339 73.1696 132.565 73.4738 131.163 73.2259C129.762 72.978 128.73 72.3178 128.069 71.2451C127.431 70.163 127.041 68.9314 126.9 67.5502C126.759 66.1436 126.725 63.2697 126.797 58.9285L127.362 24.8463L141.653 19.1446L141.083 53.5315C141.018 57.4665 141.085 59.7598 141.285 60.4113C141.509 61.0535 142.116 61.1769 143.107 60.7818C144.168 60.3584 144.799 59.7283 145 58.8914C145.225 58.0451 145.372 55.5529 145.441 51.4148L146.004 17.4087L160.296 11.707Z" fill="#ECECFF"/>
</svg>
