<svg width="1728" height="1117" viewBox="0 0 1728 1117" fill="none" xmlns="http://www.w3.org/2000/svg">
<g id="MacBook Pro 16&#34; - 4">
<rect width="1728" height="1117" fill="white"/>
<g id="Cookiebottom">
<path id="Cookiebase" fill-rule="evenodd" clip-rule="evenodd" d="M843.156 337.816C846.705 333.756 852.883 333.326 856.962 336.856C860.784 333.05 866.977 333.048 870.801 336.851C874.88 333.324 881.058 333.758 884.605 337.821C888.92 334.584 895.053 335.444 898.31 339.742C902.841 336.817 908.899 338.106 911.846 342.623C916.569 340.019 922.522 341.724 925.15 346.433C930.044 344.168 935.863 346.287 938.153 351.171C943.192 349.248 948.85 351.766 950.797 356.795C955.959 355.233 961.426 358.141 963.014 363.296C968.272 362.094 973.525 365.374 974.753 370.625C980.081 369.796 985.091 373.438 985.946 378.763C991.32 378.305 996.065 382.284 996.55 387.655C1001.94 387.576 1006.4 391.879 1006.5 397.272C1011.89 397.565 1016.03 402.166 1015.77 407.553C1021.12 408.225 1024.93 413.106 1024.28 418.461C1029.57 419.501 1033.04 424.634 1032.02 429.931C1037.23 431.341 1040.33 436.705 1038.94 441.918C1044.04 443.685 1046.75 449.25 1045.01 454.354C1049.97 456.475 1052.29 462.218 1050.19 467.187C1054.99 469.646 1056.91 475.535 1054.47 480.347C1059.09 483.137 1060.58 489.147 1057.82 493.776C1062.23 496.879 1063.3 502.977 1060.22 507.404C1064.41 510.809 1065.05 516.968 1061.67 521.167C1065.6 524.854 1065.82 531.043 1062.15 534.997C1065.82 538.952 1065.6 545.141 1061.67 548.828C1065.05 553.027 1064.41 559.186 1060.22 562.591C1063.31 567.017 1062.23 573.116 1057.82 576.219C1060.58 580.848 1059.09 586.858 1054.47 589.648C1056.91 594.46 1054.99 600.349 1050.19 602.808C1052.29 607.778 1049.97 613.52 1045.01 615.641C1046.75 620.745 1044.04 626.311 1038.94 628.078C1040.33 633.29 1037.23 638.655 1032.03 640.065C1033.04 645.361 1029.58 650.495 1024.29 651.535C1024.93 656.89 1021.12 661.771 1015.77 662.444C1016.04 667.83 1011.89 672.431 1006.51 672.725C1006.4 678.117 1001.95 682.421 996.554 682.342C996.069 687.713 991.324 691.692 985.95 691.234C985.095 696.559 980.086 700.201 974.757 699.372C973.529 704.623 968.276 707.904 963.018 706.702C961.431 711.856 955.963 714.765 950.802 713.203C948.855 718.232 943.197 720.75 938.157 718.827C935.868 723.711 930.049 725.831 925.155 723.565C922.527 728.275 916.574 729.98 911.851 727.375C908.904 731.893 902.846 733.182 898.315 730.257C895.058 734.555 888.925 735.416 884.611 732.179C881.063 736.242 874.886 736.676 870.806 733.149C866.982 736.952 860.789 736.95 856.967 733.145C852.889 736.675 846.711 736.244 843.161 732.184C838.845 735.418 832.713 734.554 829.458 730.254C824.928 733.182 818.87 731.896 815.92 727.381C811.196 729.983 805.244 728.274 802.619 723.562C797.726 725.831 791.906 723.715 789.613 718.834C784.573 720.752 778.916 718.232 776.972 713.201C771.811 714.767 766.342 711.861 764.751 706.708C759.493 707.907 754.242 704.624 753.017 699.371C747.688 700.203 742.677 696.564 741.818 691.241C736.445 691.696 731.702 687.714 731.22 682.342C725.827 682.424 721.371 678.123 721.262 672.732C715.877 672.435 711.734 667.831 712.005 662.444C706.653 661.776 702.839 656.897 703.481 651.542C698.19 650.499 694.729 645.363 695.746 640.067C690.54 638.66 687.442 633.297 688.823 628.084C683.729 626.315 681.015 620.748 682.76 615.644C677.8 613.526 675.478 607.785 677.572 602.815C672.773 600.353 670.861 594.463 673.299 589.652C668.682 586.864 667.182 580.855 669.947 576.225C665.538 573.12 664.464 567.021 667.548 562.596C663.364 559.193 662.715 553.034 666.097 548.833C662.163 545.144 661.948 538.955 665.618 535.003C661.948 531.05 662.163 524.861 666.096 521.172C662.714 516.972 663.363 510.813 667.547 507.409C664.463 502.985 665.537 496.885 669.946 493.78C667.181 489.15 668.681 483.141 673.298 480.353C670.86 475.542 672.772 469.652 677.57 467.19C675.477 462.22 677.798 456.479 682.758 454.361C681.013 449.257 683.726 443.69 688.82 441.92C687.439 436.707 690.537 431.345 695.744 429.938C694.726 424.641 698.187 419.506 703.478 418.462C702.836 413.108 706.65 408.228 712.002 407.56C711.731 402.173 715.874 397.569 721.258 397.272C721.367 391.88 725.823 387.579 731.216 387.662C731.698 382.29 736.441 378.308 741.814 378.763C742.673 373.439 747.684 369.8 753.013 370.632C754.237 365.379 759.488 362.096 764.746 363.294C766.337 358.142 771.806 355.236 776.967 356.801C778.911 351.77 784.568 349.25 789.608 351.168C791.901 346.287 797.721 344.17 802.614 346.439C805.239 341.727 811.191 340.019 815.915 342.62C818.865 338.106 824.923 336.819 829.453 339.747C832.708 335.447 838.84 334.583 843.156 337.816Z" fill="#212121"/>
<circle id="Ellipse 438" cx="864" cy="535" r="176" fill="white"/>
</g>
<g id="Cookietop">
<path id="Cookiebase_2" fill-rule="evenodd" clip-rule="evenodd" d="M843.156 337.816C846.705 333.756 852.883 333.326 856.962 336.856C860.784 333.05 866.977 333.048 870.801 336.851C874.88 333.324 881.058 333.758 884.605 337.821C888.92 334.584 895.053 335.444 898.31 339.742C902.841 336.817 908.899 338.106 911.846 342.623C916.569 340.019 922.522 341.724 925.15 346.433C930.044 344.168 935.863 346.287 938.153 351.171C943.192 349.248 948.85 351.766 950.797 356.795C955.959 355.233 961.426 358.141 963.014 363.296C968.272 362.094 973.525 365.374 974.753 370.625C980.081 369.796 985.091 373.438 985.946 378.763C991.32 378.305 996.065 382.284 996.55 387.655C1001.94 387.576 1006.4 391.879 1006.5 397.272C1011.89 397.565 1016.03 402.166 1015.77 407.553C1021.12 408.225 1024.93 413.106 1024.28 418.461C1029.57 419.501 1033.04 424.634 1032.02 429.931C1037.23 431.341 1040.33 436.705 1038.94 441.918C1044.04 443.685 1046.75 449.25 1045.01 454.354C1049.97 456.475 1052.29 462.218 1050.19 467.187C1054.99 469.646 1056.91 475.535 1054.47 480.347C1059.09 483.137 1060.58 489.147 1057.82 493.776C1062.23 496.879 1063.3 502.977 1060.22 507.404C1064.41 510.809 1065.05 516.968 1061.67 521.167C1065.6 524.854 1065.82 531.043 1062.15 534.997C1065.82 538.952 1065.6 545.141 1061.67 548.828C1065.05 553.027 1064.41 559.186 1060.22 562.591C1063.31 567.017 1062.23 573.116 1057.82 576.219C1060.58 580.848 1059.09 586.858 1054.47 589.648C1056.91 594.46 1054.99 600.349 1050.19 602.808C1052.29 607.778 1049.97 613.52 1045.01 615.641C1046.75 620.745 1044.04 626.311 1038.94 628.078C1040.33 633.29 1037.23 638.655 1032.03 640.065C1033.04 645.361 1029.58 650.495 1024.29 651.535C1024.93 656.89 1021.12 661.771 1015.77 662.444C1016.04 667.83 1011.89 672.431 1006.51 672.725C1006.4 678.117 1001.95 682.421 996.554 682.342C996.069 687.713 991.324 691.692 985.95 691.234C985.095 696.559 980.086 700.201 974.757 699.372C973.529 704.623 968.276 707.904 963.018 706.702C961.431 711.856 955.963 714.765 950.802 713.203C948.855 718.232 943.197 720.75 938.157 718.827C935.868 723.711 930.049 725.831 925.155 723.565C922.527 728.275 916.574 729.98 911.851 727.375C908.904 731.893 902.846 733.182 898.315 730.257C895.058 734.555 888.925 735.416 884.611 732.179C881.063 736.242 874.886 736.676 870.806 733.149C866.982 736.952 860.789 736.95 856.967 733.145C852.889 736.675 846.711 736.244 843.161 732.184C838.845 735.418 832.713 734.554 829.458 730.254C824.928 733.182 818.87 731.896 815.92 727.381C811.196 729.983 805.244 728.274 802.619 723.562C797.726 725.831 791.906 723.715 789.613 718.834C784.573 720.752 778.916 718.232 776.972 713.201C771.811 714.767 766.342 711.861 764.751 706.708C759.493 707.907 754.242 704.624 753.017 699.371C747.688 700.203 742.677 696.564 741.818 691.241C736.445 691.696 731.702 687.714 731.22 682.342C725.827 682.424 721.371 678.123 721.262 672.732C715.877 672.435 711.734 667.831 712.005 662.444C706.653 661.776 702.839 656.897 703.481 651.542C698.19 650.499 694.729 645.363 695.746 640.067C690.54 638.66 687.442 633.297 688.823 628.084C683.729 626.315 681.015 620.748 682.76 615.644C677.8 613.526 675.478 607.785 677.572 602.815C672.773 600.353 670.861 594.463 673.299 589.652C668.682 586.864 667.182 580.855 669.947 576.225C665.538 573.12 664.464 567.021 667.548 562.596C663.364 559.193 662.715 553.034 666.097 548.833C662.163 545.144 661.948 538.955 665.618 535.003C661.948 531.05 662.163 524.861 666.096 521.172C662.714 516.972 663.363 510.813 667.547 507.409C664.463 502.985 665.537 496.885 669.946 493.78C667.181 489.15 668.681 483.141 673.298 480.353C670.86 475.542 672.772 469.652 677.57 467.19C675.477 462.22 677.798 456.479 682.758 454.361C681.013 449.257 683.726 443.69 688.82 441.92C687.439 436.707 690.537 431.345 695.744 429.938C694.726 424.641 698.187 419.506 703.478 418.462C702.836 413.108 706.65 408.228 712.002 407.56C711.731 402.173 715.874 397.569 721.258 397.272C721.367 391.88 725.823 387.579 731.216 387.662C731.698 382.29 736.441 378.308 741.814 378.763C742.673 373.439 747.684 369.8 753.013 370.632C754.237 365.379 759.488 362.096 764.746 363.294C766.337 358.142 771.806 355.236 776.967 356.801C778.911 351.77 784.568 349.25 789.608 351.168C791.901 346.287 797.721 344.17 802.614 346.439C805.239 341.727 811.191 340.019 815.915 342.62C818.865 338.106 824.923 336.819 829.453 339.747C832.708 335.447 838.84 334.583 843.156 337.816Z" fill="#212121"/>
<g id="Embossment">
<rect id="Rectangle 17" x="858.884" y="346" width="9" height="22" rx="4.5" fill="#58595B"/>
<rect id="Rectangle 18" x="858.884" y="703" width="9" height="22" rx="4.5" fill="#58595B"/>
<rect id="Rectangle 43" x="936.187" y="361" width="9" height="22" rx="4.5" transform="rotate(24.0249 936.187 361)" fill="#58595B"/>
<rect id="Rectangle 44" x="790.84" y="687.073" width="9" height="22" rx="4.5" transform="rotate(24.0249 790.84 687.073)" fill="#58595B"/>
<rect id="Rectangle 47" x="959.828" y="372.873" width="9" height="22" rx="4.5" transform="rotate(32.0279 959.828 372.873)" fill="#58595B"/>
<rect id="Rectangle 48" x="770.5" y="675.534" width="9" height="22" rx="4.5" transform="rotate(32.0279 770.5 675.534)" fill="#58595B"/>
<rect id="Rectangle 49" x="971.693" y="380" width="9" height="22" rx="4.5" transform="rotate(36.0072 971.693 380)" fill="#58595B"/>
<rect id="Rectangle 50" x="761.817" y="668.793" width="9" height="22" rx="4.5" transform="rotate(36.0072 761.817 668.793)" fill="#58595B"/>
<rect id="Rectangle 51" x="983.113" y="388.544" width="9" height="22" rx="4.5" transform="rotate(40.3194 983.113 388.544)" fill="#58595B"/>
<rect id="Rectangle 52" x="752.117" y="660.739" width="9" height="22" rx="4.5" transform="rotate(40.3194 752.117 660.739)" fill="#58595B"/>
<rect id="Rectangle 53" x="993.241" y="397.345" width="9" height="22" rx="4.5" transform="rotate(44.3759 993.241 397.345)" fill="#58595B"/>
<rect id="Rectangle 54" x="743.569" y="652.516" width="9" height="22" rx="4.5" transform="rotate(44.3759 743.569 652.516)" fill="#58595B"/>
<rect id="Rectangle 55" x="1002.58" y="406.689" width="9" height="22" rx="4.5" transform="rotate(48.3701 1002.58 406.689)" fill="#58595B"/>
<rect id="Rectangle 56" x="735.741" y="643.85" width="9" height="22" rx="4.5" transform="rotate(48.3701 735.741 643.85)" fill="#58595B"/>
<rect id="Rectangle 57" x="1011.24" y="416.657" width="9" height="22" rx="4.5" transform="rotate(52.3631 1011.24 416.657)" fill="#58595B"/>
<rect id="Rectangle 58" x="728.538" y="634.662" width="9" height="22" rx="4.5" transform="rotate(52.3631 728.538 634.662)" fill="#58595B"/>
<rect id="Rectangle 59" x="1019.37" y="427" width="9" height="22" rx="4.5" transform="rotate(56.347 1019.37 427)" fill="#58595B"/>
<rect id="Rectangle 60" x="722.197" y="624.836" width="9" height="22" rx="4.5" transform="rotate(56.347 722.197 624.836)" fill="#58595B"/>
<rect id="Rectangle 97" x="1026.21" y="437.494" width="9" height="22" rx="4.5" transform="rotate(60.1348 1026.21 437.494)" fill="#58595B"/>
<rect id="Rectangle 98" x="716.622" y="615.266" width="9" height="22" rx="4.5" transform="rotate(60.1348 716.622 615.266)" fill="#58595B"/>
<rect id="Rectangle 99" x="1032.77" y="449.232" width="9" height="22" rx="4.5" transform="rotate(64.2 1032.77 449.232)" fill="#58595B"/>
<rect id="Rectangle 100" x="711.357" y="604.609" width="9" height="22" rx="4.5" transform="rotate(64.2 711.357 604.609)" fill="#58595B"/>
<rect id="Rectangle 101" x="1038.3" y="460.992" width="9" height="22" rx="4.5" transform="rotate(68.1292 1038.3 460.992)" fill="#58595B"/>
<rect id="Rectangle 102" x="706.998" y="593.98" width="9" height="22" rx="4.5" transform="rotate(68.1292 706.998 593.98)" fill="#58595B"/>
<rect id="Rectangle 103" x="1043.24" y="473.729" width="9" height="22" rx="4.5" transform="rotate(72.2588 1043.24 473.729)" fill="#58595B"/>
<rect id="Rectangle 104" x="703.213" y="582.514" width="9" height="22" rx="4.5" transform="rotate(72.2588 703.213 582.514)" fill="#58595B"/>
<rect id="Rectangle 105" x="1047.04" y="486.071" width="9" height="22" rx="4.5" transform="rotate(76.1637 1047.04 486.071)" fill="#58595B"/>
<rect id="Rectangle 106" x="700.403" y="571.448" width="9" height="22" rx="4.5" transform="rotate(76.1637 700.403 571.448)" fill="#58595B"/>
<rect id="Rectangle 45" x="948.067" y="366.449" width="9" height="22" rx="4.5" transform="rotate(27.9761 948.067 366.449)" fill="#58595B"/>
<rect id="Rectangle 46" x="780.597" y="681.731" width="9" height="22" rx="4.5" transform="rotate(27.9761 780.597 681.731)" fill="#58595B"/>
<rect id="Rectangle 41" x="770.884" y="370.223" width="9" height="22" rx="4.5" transform="rotate(-27.9832 770.884 370.223)" fill="#58595B"/>
<rect id="Rectangle 42" x="938.393" y="685.484" width="9" height="22" rx="4.5" transform="rotate(-27.9832 938.393 685.484)" fill="#58595B"/>
<rect id="Rectangle 69" x="719.884" y="412.707" width="9" height="22" rx="4.5" transform="rotate(-48.1809 719.884 412.707)" fill="#58595B"/>
<rect id="Rectangle 70" x="985.939" y="650.748" width="9" height="22" rx="4.5" transform="rotate(-48.1809 985.939 650.748)" fill="#58595B"/>
<rect id="Rectangle 81" x="682.884" y="481.558" width="9" height="22" rx="4.5" transform="rotate(-71.9651 682.884 481.558)" fill="#58595B"/>
<rect id="Rectangle 82" x="1022.34" y="592.084" width="9" height="22" rx="4.5" transform="rotate(-71.9651 1022.34 592.084)" fill="#58595B"/>
<rect id="Rectangle 87" x="675.884" y="520.952" width="9" height="22" rx="4.5" transform="rotate(-84.0569 675.884 520.952)" fill="#58595B"/>
<rect id="Rectangle 88" x="1030.96" y="557.915" width="9" height="22" rx="4.5" transform="rotate(-84.0569 1030.96 557.915)" fill="#58595B"/>
<rect id="Rectangle 95" x="678.873" y="572.842" width="9" height="22" rx="4.5" transform="rotate(-99.8172 678.873 572.842)" fill="#58595B"/>
<rect id="Rectangle 96" x="1030.65" y="511.971" width="9" height="22" rx="4.5" transform="rotate(-99.8172 1030.65 511.971)" fill="#58595B"/>
<rect id="Rectangle 93" x="676.753" y="559.698" width="9" height="22" rx="4.5" transform="rotate(-95.7921 676.753 559.698)" fill="#58595B"/>
<rect id="Rectangle 94" x="1031.93" y="523.67" width="9" height="22" rx="4.5" transform="rotate(-95.7921 1031.93 523.67)" fill="#58595B"/>
<rect id="Rectangle 91" x="675.555" y="546.347" width="9" height="22" rx="4.5" transform="rotate(-91.7396 675.555 546.347)" fill="#58595B"/>
<rect id="Rectangle 92" x="1032.39" y="535.51" width="9" height="22" rx="4.5" transform="rotate(-91.7396 1032.39 535.51)" fill="#58595B"/>
<rect id="Rectangle 89" x="675.299" y="533.215" width="9" height="22" rx="4.5" transform="rotate(-87.7686 675.299 533.215)" fill="#58595B"/>
<rect id="Rectangle 90" x="1032.03" y="547.115" width="9" height="22" rx="4.5" transform="rotate(-87.7686 1032.03 547.115)" fill="#58595B"/>
<rect id="Rectangle 85" x="677.096" y="507.26" width="9" height="22" rx="4.5" transform="rotate(-79.9349 677.096 507.26)" fill="#58595B"/>
<rect id="Rectangle 86" x="1028.6" y="569.651" width="9" height="22" rx="4.5" transform="rotate(-79.9349 1028.6 569.651)" fill="#58595B"/>
<rect id="Rectangle 83" x="679.483" y="494.574" width="9" height="22" rx="4.5" transform="rotate(-76.0325 679.483 494.574)" fill="#58595B"/>
<rect id="Rectangle 84" x="1025.93" y="580.744" width="9" height="22" rx="4.5" transform="rotate(-76.0325 1025.93 580.744)" fill="#58595B"/>
<rect id="Rectangle 75" x="697.669" y="445.001" width="9" height="22" rx="4.5" transform="rotate(-60.05 697.669 445.001)" fill="#58595B"/>
<rect id="Rectangle 76" x="1007" y="623.231" width="9" height="22" rx="4.5" transform="rotate(-60.05 1007 623.231)" fill="#58595B"/>
<rect id="Rectangle 77" x="691.686" y="456.966" width="9" height="22" rx="4.5" transform="rotate(-64.0944 691.686 456.966)" fill="#58595B"/>
<rect id="Rectangle 78" x="1012.81" y="612.935" width="9" height="22" rx="4.5" transform="rotate(-64.0944 1012.81 612.935)" fill="#58595B"/>
<rect id="Rectangle 79" x="686.654" y="469.077" width="9" height="22" rx="4.5" transform="rotate(-68.0594 686.654 469.077)" fill="#58595B"/>
<rect id="Rectangle 80" x="1017.8" y="602.468" width="9" height="22" rx="4.5" transform="rotate(-68.0594 1017.8 602.468)" fill="#58595B"/>
<rect id="Rectangle 71" x="711.944" y="422.677" width="9" height="22" rx="4.5" transform="rotate(-52.034 711.944 422.677)" fill="#58595B"/>
<rect id="Rectangle 72" x="993.394" y="642.301" width="9" height="22" rx="4.5" transform="rotate(-52.034 993.394 642.301)" fill="#58595B"/>
<rect id="Rectangle 73" x="704.328" y="433.727" width="9" height="22" rx="4.5" transform="rotate(-56.0915 704.328 433.727)" fill="#58595B"/>
<rect id="Rectangle 74" x="1000.61" y="632.886" width="9" height="22" rx="4.5" transform="rotate(-56.0915 1000.61 632.886)" fill="#58595B"/>
<rect id="Rectangle 61" x="759.17" y="377.378" width="9" height="22" rx="4.5" transform="rotate(-32.1331 759.17 377.378)" fill="#58595B"/>
<rect id="Rectangle 62" x="949.054" y="679.691" width="9" height="22" rx="4.5" transform="rotate(-32.1331 949.054 679.691)" fill="#58595B"/>
<rect id="Rectangle 63" x="748.451" y="385.019" width="9" height="22" rx="4.5" transform="rotate(-36.1126 748.451 385.019)" fill="#58595B"/>
<rect id="Rectangle 64" x="958.858" y="673.425" width="9" height="22" rx="4.5" transform="rotate(-36.1126 958.858 673.425)" fill="#58595B"/>
<rect id="Rectangle 65" x="738.345" y="393.335" width="9" height="22" rx="4.5" transform="rotate(-40.0695 738.345 393.335)" fill="#58595B"/>
<rect id="Rectangle 66" x="968.152" y="666.535" width="9" height="22" rx="4.5" transform="rotate(-40.0695 968.152 666.535)" fill="#58595B"/>
<rect id="Rectangle 67" x="728.581" y="402.59" width="9" height="22" rx="4.5" transform="rotate(-44.1368 728.581 402.59)" fill="#58595B"/>
<rect id="Rectangle 68" x="977.187" y="658.801" width="9" height="22" rx="4.5" transform="rotate(-44.1368 977.187 658.801)" fill="#58595B"/>
<rect id="Rectangle 39" x="781.995" y="364.309" width="9" height="22" rx="4.5" transform="rotate(-24.0673 781.995 364.309)" fill="#58595B"/>
<rect id="Rectangle 40" x="927.583" y="690.274" width="9" height="22" rx="4.5" transform="rotate(-24.0673 927.583 690.274)" fill="#58595B"/>
<rect id="Rectangle 37" x="794.128" y="359.051" width="9" height="22" rx="4.5" transform="rotate(-20.0694 794.128 359.051)" fill="#58595B"/>
<rect id="Rectangle 38" x="916.636" y="694.373" width="9" height="22" rx="4.5" transform="rotate(-20.0694 916.636 694.373)" fill="#58595B"/>
<rect id="Rectangle 35" x="806.66" y="354.633" width="9" height="22" rx="4.5" transform="rotate(-16.052 806.66 354.633)" fill="#58595B"/>
<rect id="Rectangle 36" x="905.374" y="697.714" width="9" height="22" rx="4.5" transform="rotate(-16.052 905.374 697.714)" fill="#58595B"/>
<rect id="Rectangle 33" x="819.702" y="351.048" width="9" height="22" rx="4.5" transform="rotate(-11.963 819.702 351.048)" fill="#58595B"/>
<rect id="Rectangle 34" x="893.701" y="700.295" width="9" height="22" rx="4.5" transform="rotate(-11.963 893.701 700.295)" fill="#58595B"/>
<rect id="Rectangle 27" x="923.771" y="355.823" width="9" height="22" rx="4.5" transform="rotate(19.9374 923.771 355.823)" fill="#58595B"/>
<rect id="Rectangle 28" x="802.037" y="691.427" width="9" height="22" rx="4.5" transform="rotate(19.9374 802.037 691.427)" fill="#58595B"/>
<rect id="Rectangle 29" x="845.577" y="346.785" width="9" height="22" rx="4.5" transform="rotate(-4.03005 845.577 346.785)" fill="#58595B"/>
<rect id="Rectangle 30" x="870.667" y="702.902" width="9" height="22" rx="4.5" transform="rotate(-4.03005 870.667 702.902)" fill="#58595B"/>
<rect id="Rectangle 31" x="832.778" y="348.434" width="9" height="22" rx="4.5" transform="rotate(-7.93145 832.778 348.434)" fill="#58595B"/>
<rect id="Rectangle 32" x="882.04" y="702.019" width="9" height="22" rx="4.5" transform="rotate(-7.93145 882.04 702.019)" fill="#58595B"/>
<rect id="Rectangle 25" x="911.081" y="352.046" width="9" height="22" rx="4.5" transform="rotate(15.9344 911.081 352.046)" fill="#58595B"/>
<rect id="Rectangle 26" x="813.072" y="695.329" width="9" height="22" rx="4.5" transform="rotate(15.9344 813.072 695.329)" fill="#58595B"/>
<rect id="Rectangle 23" x="898.591" y="349.245" width="9" height="22" rx="4.5" transform="rotate(12.0645 898.591 349.245)" fill="#58595B"/>
<rect id="Rectangle 24" x="823.973" y="698.36" width="9" height="22" rx="4.5" transform="rotate(12.0645 823.973 698.36)" fill="#58595B"/>
<rect id="Rectangle 21" x="885.628" y="347.256" width="9" height="22" rx="4.5" transform="rotate(8.09957 885.628 347.256)" fill="#58595B"/>
<rect id="Rectangle 22" x="835.329" y="700.695" width="9" height="22" rx="4.5" transform="rotate(8.09957 835.329 700.695)" fill="#58595B"/>
<rect id="Rectangle 19" x="872.304" y="346.157" width="9" height="22" rx="4.5" transform="rotate(4.05765 872.304 346.157)" fill="#58595B"/>
<rect id="Rectangle 20" x="847.043" y="702.262" width="9" height="22" rx="4.5" transform="rotate(4.05765 847.043 702.262)" fill="#58595B"/>
<circle id="Ellipse 400" cx="823.884" cy="388" r="4" fill="#58595B"/>
<circle id="Ellipse 412" cx="828.884" cy="422" r="4" fill="#58595B"/>
<circle id="Ellipse 401" cx="903.884" cy="682" r="4" fill="#58595B"/>
<circle id="Ellipse 402" cx="715.334" cy="493.451" r="4" transform="rotate(-60.5189 715.334 493.451)" fill="#58595B"/>
<circle id="Ellipse 405" cx="712.334" cy="572.451" r="4" transform="rotate(-60.5189 712.334 572.451)" fill="#58595B"/>
<circle id="Ellipse 406" cx="750.334" cy="643.451" r="4" transform="rotate(-60.5189 750.334 643.451)" fill="#58595B"/>
<circle id="Ellipse 407" cx="820.334" cy="683.451" r="4" transform="rotate(-60.5189 820.334 683.451)" fill="#58595B"/>
<circle id="Ellipse 408" cx="976.334" cy="643.451" r="4" transform="rotate(-60.5189 976.334 643.451)" fill="#58595B"/>
<circle id="Ellipse 404" cx="753.334" cy="424.451" r="4" transform="rotate(-60.5189 753.334 424.451)" fill="#58595B"/>
<circle id="Ellipse 403" cx="1011.33" cy="573.451" r="4" transform="rotate(-60.5189 1011.33 573.451)" fill="#58595B"/>
<circle id="Ellipse 409" cx="1009.33" cy="493.451" r="4" transform="rotate(-60.5189 1009.33 493.451)" fill="#58595B"/>
<circle id="Ellipse 410" cx="970.334" cy="428.451" r="4" transform="rotate(-60.5189 970.334 428.451)" fill="#58595B"/>
<circle id="Ellipse 424" cx="927.334" cy="427.451" r="4" transform="rotate(-60.5189 927.334 427.451)" fill="#58595B"/>
<circle id="Ellipse 425" cx="804.334" cy="641.451" r="4" transform="rotate(-60.5189 804.334 641.451)" fill="#58595B"/>
<circle id="Ellipse 426" cx="970.386" cy="471.503" r="4" transform="rotate(-31.602 970.386 471.503)" fill="#58595B"/>
<circle id="Ellipse 429" cx="975.386" cy="592.503" r="4" transform="rotate(-31.602 975.386 592.503)" fill="#58595B"/>
<circle id="Ellipse 430" cx="933.386" cy="642.503" r="4" transform="rotate(-31.602 933.386 642.503)" fill="#58595B"/>
<circle id="Ellipse 431" cx="865.386" cy="659.503" r="4" transform="rotate(-31.602 865.386 659.503)" fill="#58595B"/>
<circle id="Ellipse 428" cx="987.386" cy="531.503" r="4" transform="rotate(-31.602 987.386 531.503)" fill="#58595B"/>
<circle id="Ellipse 427" cx="760.263" cy="598.372" r="4" transform="rotate(-31.602 760.263 598.372)" fill="#58595B"/>
<circle id="Ellipse 432" cx="739.386" cy="539.503" r="4" transform="rotate(-31.602 739.386 539.503)" fill="#58595B"/>
<circle id="Ellipse 433" cx="756.386" cy="476.503" r="4" transform="rotate(-31.602 756.386 476.503)" fill="#58595B"/>
<circle id="Ellipse 434" cx="801.386" cy="428.503" r="4" transform="rotate(-31.602 801.386 428.503)" fill="#58595B"/>
<circle id="Ellipse 435" cx="863.386" cy="411.503" r="4" transform="rotate(-31.602 863.386 411.503)" fill="#58595B"/>
<circle id="Ellipse 411" cx="901.334" cy="388.451" r="4" transform="rotate(-60.5189 901.334 388.451)" fill="#58595B"/>
<path id="Vector 2" d="M839.884 386.831C845.122 385.756 850.467 385.067 855.798 384.668C863.31 384.105 871.064 384.07 878.536 385.154C882.052 385.664 885.31 386.753 888.704 387.696" stroke="#58595B" stroke-width="8" stroke-linecap="round"/>
<path id="Vector 3" d="M838.884 684.696C844.122 685.771 849.467 686.46 854.798 686.859C862.31 687.422 870.064 687.457 877.536 686.373C881.052 685.863 884.31 684.774 887.704 683.831" stroke="#58595B" stroke-width="8" stroke-linecap="round"/>
<path id="Vector 4" d="M916.303 394.359C921.393 396.002 926.384 398.034 931.22 400.311C938.036 403.519 944.802 407.306 950.772 411.928C953.582 414.103 955.882 416.655 958.372 419.147" stroke="#58595B" stroke-width="8" stroke-linecap="round"/>
<path id="Vector 5" d="M763.884 654.961C767.914 658.476 772.228 661.707 776.671 664.679C782.932 668.867 789.664 672.715 796.702 675.45C800.014 676.737 803.385 677.394 806.804 678.243" stroke="#58595B" stroke-width="8" stroke-linecap="round"/>
<path id="Vector 8" d="M1015.22 512C1016.2 517.257 1016.8 522.613 1017.1 527.95C1017.53 535.471 1017.43 543.224 1016.21 550.676C1015.64 554.183 1014.49 557.421 1013.49 560.797" stroke="#58595B" stroke-width="8" stroke-linecap="round"/>
<path id="Vector 9" d="M711.931 507C710.763 512.219 709.98 517.551 709.487 522.874C708.791 530.374 708.619 538.127 709.571 545.617C710.019 549.141 711.049 552.418 711.932 555.828" stroke="#58595B" stroke-width="8" stroke-linecap="round"/>
<path id="Vector 12" d="M959.569 653.42C955.546 656.943 951.24 660.183 946.803 663.164C940.551 667.366 933.827 671.228 926.795 673.978C923.486 675.272 920.116 675.936 916.699 676.793" stroke="#58595B" stroke-width="8" stroke-linecap="round"/>
<path id="Vector 13" d="M809.899 390.975C804.813 392.63 799.826 394.672 794.995 396.959C788.186 400.182 781.427 403.983 775.467 408.618C772.662 410.799 770.367 413.355 767.884 415.853" stroke="#58595B" stroke-width="8" stroke-linecap="round"/>
<path id="Vector 10" d="M1007.87 589C1006.18 594.075 1004.11 599.049 1001.79 603.866C998.524 610.654 994.679 617.388 990.007 623.318C987.808 626.109 985.237 628.388 982.724 630.856" stroke="#58595B" stroke-width="8" stroke-linecap="round"/>
<path id="Vector 11" d="M743.901 437.029C740.353 441.03 737.085 445.315 734.075 449.733C729.834 455.959 725.929 462.658 723.134 469.672C721.819 472.972 721.134 476.339 720.255 479.749" stroke="#58595B" stroke-width="8" stroke-linecap="round"/>
<path id="Vector 6" d="M980.873 437C984.385 441.033 987.613 445.348 990.582 449.794C994.766 456.058 998.609 462.792 1001.34 469.832C1002.62 473.144 1003.28 476.517 1004.13 479.935" stroke="#58595B" stroke-width="8" stroke-linecap="round"/>
<path id="Vector 7" d="M716.917 587C718.558 592.09 720.586 597.083 722.86 601.921C726.064 608.738 729.846 615.507 734.464 621.481C736.638 624.292 739.187 626.594 741.678 629.085" stroke="#58595B" stroke-width="8" stroke-linecap="round"/>
<path id="Star 3" d="M827.961 429.659C829.149 426.761 832.678 425.656 835.307 427.36L840.744 430.884L847.228 434.492C849.03 435.495 848.318 438.239 846.255 438.239L842.345 438.239C836.927 438.239 831.668 440.073 827.425 443.441L825.763 444.759C824.143 446.045 821.876 444.328 822.675 442.42L825.262 436.243L827.961 429.659Z" fill="#58595B"/>
<path id="Star 4" d="M831.012 414.059C829.868 416.975 826.356 418.133 823.702 416.469L818.212 413.027L811.675 409.518C809.857 408.542 810.528 405.787 812.59 405.756L816.5 405.697C821.918 405.615 827.148 403.703 831.34 400.271L832.982 398.927C834.582 397.618 836.875 399.301 836.105 401.22L833.611 407.435L831.012 414.059Z" fill="#58595B"/>
<path id="Star 5" d="M837.683 423.176C834.776 422.01 833.646 418.488 835.33 415.847L838.814 410.385L842.375 403.875C843.365 402.065 846.114 402.757 846.129 404.82L846.158 408.73C846.197 414.148 848.069 419.393 851.468 423.612L852.799 425.264C854.096 426.874 852.395 429.154 850.482 428.369L844.287 425.827L837.683 423.176Z" fill="#58595B"/>
<path id="Star 6" d="M821.013 420.588C823.911 421.775 825.017 425.305 823.313 427.933L819.79 433.371L816.183 439.855C815.181 441.658 812.436 440.946 812.436 438.883L812.435 434.973C812.434 429.555 810.6 424.297 807.231 420.054L805.912 418.392C804.626 416.773 806.343 414.505 808.251 415.304L814.428 417.89L821.013 420.588Z" fill="#58595B"/>
<circle id="Ellipse 413" cx="898.792" cy="651.665" r="4" fill="#58595B"/>
<path id="Star 7" d="M897.87 659.324C899.058 656.426 902.587 655.321 905.216 657.024L910.653 660.549L917.136 664.156C918.939 665.159 918.227 667.904 916.164 667.904L912.253 667.904C906.836 667.904 901.577 669.737 897.333 673.105L895.672 674.424C894.052 675.71 891.785 673.992 892.584 672.085L895.171 665.908L897.87 659.324Z" fill="#58595B"/>
<path id="Star 8" d="M900.821 643.391C899.676 646.307 896.164 647.465 893.51 645.801L888.02 642.36L881.483 638.85C879.665 637.875 880.336 635.12 882.399 635.088L886.309 635.029C891.726 634.948 896.956 633.035 901.149 629.603L902.79 628.26C904.39 626.95 906.683 628.633 905.913 630.552L903.42 636.767L900.821 643.391Z" fill="#58595B"/>
<path id="Star 9" d="M907.592 652.841C904.685 651.674 903.554 648.153 905.239 645.512L908.723 640.049L912.284 633.539C913.273 631.729 916.023 632.422 916.038 634.485L916.067 638.395C916.106 643.813 917.978 649.058 921.377 653.277L922.708 654.929C924.005 656.539 922.304 658.819 920.391 658.034L914.195 655.492L907.592 652.841Z" fill="#58595B"/>
<path id="Star 10" d="M890.922 650.252C893.82 651.44 894.925 654.969 893.222 657.598L889.699 663.036L886.092 669.52C885.089 671.323 882.345 670.611 882.344 668.548L882.344 664.638C882.343 659.22 880.509 653.962 877.14 649.719L875.821 648.057C874.535 646.438 876.252 644.17 878.16 644.969L884.337 647.555L890.922 650.252Z" fill="#58595B"/>
<circle id="Ellipse 422" cx="749.77" cy="572.299" r="4" transform="rotate(-90.1107 749.77 572.299)" fill="#58595B"/>
<path id="Star 43" d="M757.431 573.207C754.531 572.025 753.419 568.497 755.118 565.866L758.631 560.422L762.226 553.931C763.226 552.127 765.972 552.833 765.976 554.896L765.984 558.807C765.994 564.225 767.837 569.48 771.214 573.717L772.536 575.376C773.824 576.993 772.111 579.264 770.202 578.469L764.02 575.894L757.431 573.207Z" fill="#58595B"/>
<path id="Star 44" d="M741.825 570.186C744.743 571.324 745.908 574.835 744.249 577.492L740.818 582.988L737.321 589.532C736.349 591.352 733.593 590.687 733.558 588.624L733.491 584.714C733.399 579.297 731.476 574.07 728.037 569.885L726.69 568.246C725.377 566.648 727.055 564.352 728.976 565.118L735.196 567.6L741.825 570.186Z" fill="#58595B"/>
<path id="Star 45" d="M750.93 563.498C749.768 566.407 746.249 567.544 743.605 565.865L738.136 562.391L731.619 558.843C729.807 557.857 730.494 555.106 732.557 555.087L736.467 555.051C741.885 555.001 747.126 553.119 751.339 549.712L752.988 548.378C754.596 547.077 756.879 548.774 756.098 550.688L753.568 556.889L750.93 563.498Z" fill="#58595B"/>
<path id="Star 46" d="M748.373 580.173C749.555 577.272 753.082 576.16 755.714 577.858L761.159 581.371L767.65 584.965C769.455 585.964 768.748 588.71 766.685 588.715L762.775 588.723C757.357 588.734 752.102 590.578 747.866 593.955L746.207 595.278C744.59 596.567 742.319 594.854 743.114 592.945L745.688 586.763L748.373 580.173Z" fill="#58595B"/>
<circle id="Ellipse 423" cx="979.299" cy="501.947" r="4" transform="rotate(-90.1107 979.299 501.947)" fill="#58595B"/>
<path id="Star 47" d="M986.96 502.855C984.06 501.673 982.948 498.145 984.647 495.513L988.161 490.069L991.756 483.579C992.755 481.774 995.501 482.481 995.505 484.544L995.513 488.455C995.523 493.872 997.366 499.127 1000.74 503.364L1002.06 505.024C1003.35 506.641 1001.64 508.911 999.732 508.116L993.55 505.541L986.96 502.855Z" fill="#58595B"/>
<path id="Star 48" d="M971.022 499.935C973.94 501.073 975.105 504.584 973.446 507.241L970.015 512.737L966.519 519.281C965.546 521.101 962.79 520.435 962.755 518.373L962.688 514.463C962.596 509.046 960.674 503.819 957.234 499.633L955.887 497.994C954.574 496.397 956.252 494.101 958.173 494.867L964.393 497.348L971.022 499.935Z" fill="#58595B"/>
<path id="Star 49" d="M980.459 493.145C979.298 496.054 975.778 497.192 973.134 495.512L967.665 492.039L961.148 488.491C959.336 487.504 960.023 484.753 962.086 484.734L965.996 484.698C971.414 484.648 976.655 482.767 980.868 479.36L982.517 478.026C984.125 476.725 986.408 478.422 985.627 480.336L983.097 486.537L980.459 493.145Z" fill="#58595B"/>
<path id="Star 50" d="M977.902 509.82C979.084 506.92 982.612 505.808 985.243 507.506L990.688 511.019L997.179 514.613C998.984 515.612 998.278 518.358 996.215 518.362L992.304 518.37C986.886 518.382 981.632 520.226 977.395 523.603L975.736 524.925C974.119 526.214 971.848 524.502 972.643 522.593L975.217 516.41L977.902 509.82Z" fill="#58595B"/>
<circle id="Ellipse 420" cx="747.228" cy="510.488" r="4" transform="rotate(-60.2322 747.228 510.488)" fill="#58595B"/>
<path id="Star 35" d="M753.418 515.092C751.492 512.622 752.286 509.009 755.07 507.574L760.828 504.604L767.179 500.767C768.945 499.7 770.974 501.681 769.949 503.472L768.008 506.866C765.318 511.569 764.298 517.044 765.115 522.4L765.435 524.497C765.747 526.541 763.13 527.656 761.871 526.016L757.794 520.704L753.418 515.092Z" fill="#58595B"/>
<path id="Star 36" d="M741.392 504.698C743.355 507.139 742.616 510.763 739.854 512.24L734.141 515.297L727.849 519.229C726.1 520.323 724.041 518.373 725.038 516.567L726.928 513.143C729.547 508.4 730.484 502.911 729.586 497.568L729.235 495.476C728.892 493.436 731.491 492.282 732.775 493.903L736.932 499.153L741.392 504.698Z" fill="#58595B"/>
<path id="Star 37" d="M752.618 503.434C750.162 505.378 746.544 504.611 745.088 501.838L742.076 496.101L738.193 489.778C737.113 488.021 739.079 485.977 740.877 486.988L744.286 488.905C749.008 491.561 754.49 492.54 759.84 491.684L761.935 491.349C763.977 491.023 765.111 493.631 763.48 494.902L758.198 499.018L752.618 503.434Z" fill="#58595B"/>
<path id="Star 38" d="M742.094 516.619C744.564 514.693 748.177 515.486 749.613 518.269L752.584 524.027L756.422 530.377C757.489 532.143 755.508 534.172 753.717 533.148L750.323 531.207C745.619 528.518 740.144 527.5 734.789 528.317L732.691 528.637C730.647 528.949 729.532 526.333 731.172 525.074L736.483 520.995L742.094 516.619Z" fill="#58595B"/>
<circle id="Ellipse 421" cx="981.296" cy="563.829" r="4" transform="rotate(-60.2322 981.296 563.829)" fill="#58595B"/>
<path id="Star 39" d="M987.486 568.433C985.561 565.963 986.354 562.351 989.138 560.915L994.897 557.945L1001.25 554.108C1003.01 553.041 1005.04 555.022 1004.02 556.813L1002.08 560.207C999.386 564.91 998.367 570.385 999.183 575.741L999.503 577.838C999.815 579.882 997.198 580.998 995.939 579.357L991.862 574.045L987.486 568.433Z" fill="#58595B"/>
<path id="Star 40" d="M975.122 557.961C977.085 560.402 976.346 564.026 973.584 565.504L967.871 568.56L961.579 572.493C959.829 573.586 957.771 571.636 958.768 569.83L960.658 566.407C963.277 561.664 964.213 556.174 963.316 550.831L962.964 548.739C962.622 546.7 965.221 545.545 966.505 547.166L970.662 552.416L975.122 557.961Z" fill="#58595B"/>
<path id="Star 41" d="M986.686 556.775C984.23 558.719 980.612 557.952 979.156 555.179L976.144 549.442L972.261 543.12C971.181 541.362 973.147 539.319 974.945 540.33L978.354 542.246C983.076 544.902 988.558 545.881 993.908 545.026L996.003 544.691C998.045 544.364 999.179 546.972 997.548 548.243L992.266 552.359L986.686 556.775Z" fill="#58595B"/>
<path id="Star 42" d="M976.162 569.96C978.632 568.034 982.245 568.827 983.681 571.61L986.652 577.369L990.49 583.719C991.557 585.484 989.577 587.513 987.786 586.489L984.391 584.549C979.687 581.859 974.213 580.841 968.857 581.658L966.76 581.979C964.715 582.291 963.6 579.674 965.24 578.415L970.551 574.337L976.162 569.96Z" fill="#58595B"/>
<circle id="Ellipse 418" cx="774.878" cy="456.664" r="4" transform="rotate(-31.0215 774.878 456.664)" fill="#58595B"/>
<path id="Star 27" d="M778.034 463.703C777.559 460.607 780.014 457.841 783.145 457.947L789.621 458.165L797.036 457.915C799.098 457.845 799.902 460.565 798.134 461.628L794.783 463.643C790.14 466.435 786.578 470.716 784.677 475.789L783.933 477.776C783.207 479.712 780.379 479.409 780.081 477.363L779.115 470.736L778.034 463.703Z" fill="#58595B"/>
<path id="Star 28" d="M772.61 448.761C773.132 451.85 770.718 454.652 767.587 454.594L761.108 454.474L753.698 454.836C751.637 454.936 750.792 452.23 752.544 451.14L755.864 449.074C760.464 446.212 763.961 441.878 765.785 436.776L766.499 434.779C767.195 432.832 770.028 433.092 770.357 435.134L771.423 441.745L772.61 448.761Z" fill="#58595B"/>
<path id="Star 29" d="M783.025 453.137C779.933 453.635 777.149 451.2 777.231 448.069L777.402 441.591L777.098 434.178C777.014 432.117 779.727 431.293 780.803 433.053L782.843 436.389C785.669 441.012 789.976 444.542 795.063 446.406L797.055 447.136C798.996 447.847 798.714 450.677 796.67 450.991L790.05 452.005L783.025 453.137Z" fill="#58595B"/>
<path id="Star 30" d="M767.405 459.509C770.501 459.033 773.267 461.488 773.162 464.619L772.945 471.095L773.196 478.51C773.266 480.572 770.547 481.377 769.483 479.609L767.468 476.258C764.675 471.615 760.393 468.055 755.319 466.154L753.333 465.41C751.396 464.685 751.699 461.857 753.745 461.558L760.372 460.591L767.405 459.509Z" fill="#58595B"/>
<circle id="Ellipse 419" cx="953.148" cy="617.452" r="4" transform="rotate(-31.0215 953.148 617.452)" fill="#58595B"/>
<path id="Star 31" d="M956.304 624.491C955.829 621.395 958.284 618.629 961.415 618.735L967.89 618.953L975.306 618.703C977.368 618.634 978.172 621.353 976.404 622.416L973.053 624.431C968.41 627.223 964.848 631.504 962.947 636.578L962.203 638.564C961.477 640.501 958.649 640.197 958.351 638.151L957.385 631.525L956.304 624.491Z" fill="#58595B"/>
<path id="Star 32" d="M950.622 609.317C951.144 612.405 948.731 615.208 945.599 615.15L939.121 615.029L931.71 615.391C929.65 615.492 928.804 612.785 930.556 611.695L933.877 609.629C938.477 606.768 941.973 602.433 943.797 597.332L944.512 595.334C945.208 593.387 948.04 593.648 948.369 595.689L949.436 602.301L950.622 609.317Z" fill="#58595B"/>
<path id="Star 33" d="M961.295 613.925C958.203 614.423 955.419 611.988 955.501 608.857L955.672 602.38L955.368 594.966C955.284 592.905 957.997 592.081 959.073 593.841L961.113 597.178C963.939 601.8 968.246 605.331 973.333 607.194L975.325 607.924C977.266 608.636 976.984 611.466 974.94 611.779L968.32 612.794L961.295 613.925Z" fill="#58595B"/>
<path id="Star 34" d="M945.675 620.298C948.771 619.822 951.537 622.277 951.432 625.407L951.215 631.883L951.466 639.299C951.536 641.36 948.817 642.165 947.753 640.397L945.738 637.046C942.945 632.404 938.663 628.843 933.589 626.943L931.603 626.199C929.666 625.474 929.969 622.646 932.015 622.347L938.642 621.379L945.675 620.298Z" fill="#58595B"/>
<circle id="Ellipse 414" cx="893.147" cy="420.156" r="4" transform="rotate(31.0795 893.147 420.156)" fill="#58595B"/>
<path id="Star 11" d="M888.403 426.239C890.917 424.37 894.51 425.246 895.881 428.062L898.719 433.887L902.409 440.324C903.436 442.114 901.409 444.097 899.642 443.032L896.293 441.013C891.653 438.216 886.203 437.072 880.83 437.765L878.726 438.037C876.675 438.302 875.62 435.661 877.288 434.44L882.693 430.485L888.403 426.239Z" fill="#58595B"/>
<path id="Star 12" d="M899.07 414.454C896.585 416.36 892.978 415.539 891.565 412.744L888.639 406.962L884.852 400.582C883.799 398.808 885.796 396.794 887.578 397.833L890.958 399.801C895.64 402.527 901.106 403.589 906.468 402.814L908.568 402.511C910.614 402.215 911.709 404.84 910.059 406.086L904.715 410.122L899.07 414.454Z" fill="#58595B"/>
<path id="Star 13" d="M900.076 425.706C898.189 423.206 899.038 419.606 901.844 418.214L907.649 415.334L914.058 411.597C915.841 410.558 917.838 412.57 916.786 414.345L914.792 417.708C912.029 422.369 910.924 427.827 911.657 433.195L911.944 435.297C912.224 437.346 909.591 438.42 908.357 436.76L904.363 431.385L900.076 425.706Z" fill="#58595B"/>
<path id="Star 14" d="M887.135 414.883C889.005 417.396 888.129 420.99 885.314 422.362L879.489 425.2L873.053 428.892C871.263 429.918 869.28 427.892 870.345 426.125L872.363 422.775C875.159 418.135 876.302 412.685 875.608 407.311L875.336 405.207C875.07 403.157 877.711 402.101 878.933 403.77L882.889 409.173L887.135 414.883Z" fill="#58595B"/>
<circle id="Ellipse 415" cx="834.461" cy="652.941" r="4" transform="rotate(31.0795 834.461 652.941)" fill="#58595B"/>
<path id="Star 15" d="M829.717 659.025C832.231 657.156 835.824 658.032 837.196 660.848L840.033 666.673L843.724 673.11C844.75 674.899 842.723 676.882 840.956 675.817L837.607 673.798C832.967 671.002 827.517 669.857 822.144 670.551L820.04 670.823C817.989 671.088 816.934 668.446 818.603 667.225L824.007 663.27L829.717 659.025Z" fill="#58595B"/>
<path id="Star 16" d="M840.47 646.903C837.985 648.809 834.378 647.988 832.964 645.193L830.039 639.411L826.252 633.031C825.199 631.257 827.196 629.243 828.978 630.282L832.358 632.25C837.039 634.976 842.506 636.038 847.868 635.263L849.968 634.96C852.014 634.664 853.109 637.289 851.459 638.535L846.115 642.571L840.47 646.903Z" fill="#58595B"/>
<path id="Star 17" d="M841.39 658.491C839.503 655.991 840.353 652.392 843.159 651L848.963 648.12L855.373 644.382C857.155 643.343 859.153 645.355 858.101 647.13L856.106 650.494C853.343 655.154 852.239 660.612 852.972 665.98L853.259 668.082C853.539 670.131 850.905 671.206 849.672 669.546L845.678 664.17L841.39 658.491Z" fill="#58595B"/>
<path id="Star 18" d="M828.45 647.669C830.319 650.182 829.444 653.775 826.628 655.147L820.803 657.986L814.367 661.677C812.578 662.704 810.594 660.677 811.659 658.91L813.677 655.561C816.473 650.92 817.617 645.47 816.922 640.097L816.65 637.993C816.385 635.942 819.026 634.887 820.247 636.555L824.203 641.959L828.45 647.669Z" fill="#58595B"/>
<circle id="Ellipse 416" cx="948.438" cy="451.052" r="4" transform="rotate(61.6762 948.438 451.052)" fill="#58595B"/>
<path id="Star 19" d="M941.258 453.873C944.373 453.544 947.02 456.127 946.767 459.249L946.245 465.707L946.145 473.126C946.117 475.189 943.364 475.865 942.385 474.049L940.529 470.606C937.959 465.837 933.85 462.078 928.872 459.94L926.923 459.103C925.023 458.287 925.459 455.477 927.517 455.275L934.182 454.622L941.258 453.873Z" fill="#58595B"/>
<path id="Star 20" d="M956.438 449.158C953.329 449.534 950.643 446.992 950.848 443.866L951.273 437.401L951.261 429.981C951.257 427.918 954.001 427.201 955.007 429.002L956.914 432.416C959.556 437.146 963.721 440.843 968.731 442.905L970.693 443.713C972.605 444.5 972.211 447.317 970.157 447.549L963.502 448.303L956.438 449.158Z" fill="#58595B"/>
<path id="Star 21" d="M951.577 459.356C951.225 456.244 953.789 453.578 956.912 453.807L963.374 454.283L970.794 454.328C972.857 454.341 973.552 457.09 971.743 458.082L968.315 459.962C963.564 462.568 959.835 466.703 957.734 471.697L956.911 473.653C956.109 475.559 953.296 475.143 953.079 473.087L952.377 466.427L951.577 459.356Z" fill="#58595B"/>
<path id="Star 22" d="M945.947 443.453C946.277 446.568 943.694 449.216 940.572 448.964L934.114 448.442L926.695 448.344C924.632 448.316 923.956 445.563 925.772 444.583L929.214 442.728C933.983 440.156 937.742 436.047 939.878 431.068L940.715 429.119C941.531 427.219 944.341 427.654 944.543 429.712L945.198 436.377L945.947 443.453Z" fill="#58595B"/>
<circle id="Ellipse 417" cx="779.437" cy="621.557" r="4" transform="rotate(61.6762 779.437 621.557)" fill="#58595B"/>
<path id="Star 23" d="M772.257 624.378C775.372 624.049 778.019 626.632 777.767 629.754L777.244 636.212L777.144 643.631C777.117 645.694 774.363 646.369 773.384 644.553L771.529 641.111C768.958 636.342 764.85 632.582 759.871 630.445L757.922 629.608C756.022 628.792 756.458 625.981 758.516 625.78L765.181 625.126L772.257 624.378Z" fill="#58595B"/>
<path id="Star 24" d="M787.682 619.417C784.573 619.793 781.887 617.25 782.092 614.125L782.517 607.659L782.505 600.24C782.501 598.177 785.245 597.46 786.251 599.261L788.158 602.675C790.8 607.405 794.965 611.101 799.975 613.164L801.937 613.971C803.849 614.758 803.455 617.575 801.401 617.808L794.747 618.562L787.682 619.417Z" fill="#58595B"/>
<path id="Star 25" d="M782.576 629.861C782.224 626.748 784.788 624.082 787.912 624.312L794.374 624.788L801.793 624.833C803.856 624.846 804.552 627.595 802.743 628.587L799.314 630.467C794.564 633.072 790.835 637.208 788.733 642.202L787.911 644.157C787.109 646.063 784.295 645.648 784.078 643.591L783.376 636.931L782.576 629.861Z" fill="#58595B"/>
<path id="Star 26" d="M776.946 613.958C777.276 617.073 774.693 619.72 771.571 619.468L765.113 618.947L757.694 618.848C755.631 618.821 754.955 616.067 756.771 615.088L760.213 613.232C764.982 610.661 768.741 606.552 770.877 601.573L771.714 599.624C772.53 597.723 775.34 598.159 775.542 600.217L776.197 606.882L776.946 613.958Z" fill="#58595B"/>
<path id="Ellipse 436" d="M952.884 537.5C952.884 551.159 943.702 564.195 927.429 574.028C911.231 583.816 888.598 590 863.384 590C838.17 590 815.536 583.816 799.338 574.028C783.065 564.195 773.884 551.159 773.884 537.5C773.884 523.841 783.065 510.805 799.338 500.972C815.536 491.184 838.17 485 863.384 485C888.598 485 911.231 491.184 927.429 500.972C943.702 510.805 952.884 523.841 952.884 537.5Z" stroke="#58595B" stroke-width="8"/>
<rect id="Rectangle 107" x="858.884" y="439" width="9" height="47" rx="4.5" fill="#58595B"/>
<rect id="Rectangle 108" x="893.884" y="448" width="9" height="61" rx="4.5" transform="rotate(90 893.884 448)" fill="#58595B"/>
<rect id="Rectangle 109" x="904.884" y="463" width="9" height="83" rx="4.5" transform="rotate(90 904.884 463)" fill="#58595B"/>
<path id="Polygon 1" d="M859.83 492.382C862.332 490.912 865.435 490.912 867.937 492.382L881.795 500.526C883.552 501.558 882.819 504.25 880.781 504.25H846.986C844.948 504.25 844.215 501.558 845.972 500.526L859.83 492.382Z" fill="#58595B"/>
<path id="Polygon 2" d="M868.186 580.868C865.683 582.338 862.581 582.338 860.079 580.868L846.221 572.724C844.464 571.692 845.196 569 847.234 569L881.03 569C883.068 569 883.801 571.692 882.044 572.724L868.186 580.868Z" fill="#58595B"/>
<path id="Polygon 3" d="M919.895 474.98C923.387 474.147 927.008 475.743 928.748 478.884L934.346 488.984C935.275 490.659 933.543 492.556 931.79 491.783L908.32 481.436C906.566 480.663 906.799 478.105 908.662 477.66L919.895 474.98Z" fill="#58595B"/>
<path id="Polygon 4" d="M806.964 474.98C803.471 474.147 799.851 475.743 798.11 478.884L792.512 488.984C791.583 490.659 793.315 492.556 795.068 491.783L818.539 481.436C820.292 480.663 820.06 478.105 818.196 477.66L806.964 474.98Z" fill="#58595B"/>
<path id="Polygon 5" d="M798.135 599.198C799.911 602.319 803.55 603.874 807.033 603L818.234 600.192C820.092 599.726 820.295 597.166 818.533 596.413L794.946 586.334C793.184 585.582 791.474 587.498 792.422 589.163L798.135 599.198Z" fill="#58595B"/>
<path id="Polygon 6" d="M828.868 603.908C832.356 603.052 835.986 604.625 837.747 607.754L843.409 617.818C844.349 619.488 842.629 621.396 840.871 620.634L817.335 610.437C815.577 609.676 815.793 607.116 817.653 606.66L828.868 603.908Z" fill="#58595B"/>
<path id="Polygon 7" d="M889.134 607.665C890.908 604.543 894.546 602.986 898.029 603.857L909.232 606.659C911.091 607.124 911.295 609.684 909.533 610.438L885.952 620.53C884.191 621.284 882.48 619.369 883.426 617.703L889.134 607.665Z" fill="#58595B"/>
<path id="Polygon 8" d="M927.749 599.316C926.015 602.461 922.399 604.065 918.904 603.24L907.665 600.586C905.801 600.146 905.563 597.588 907.314 596.811L930.76 586.409C932.512 585.632 934.248 587.525 933.323 589.203L927.749 599.316Z" fill="#58595B"/>
<path id="Vector 17" d="M847.384 601L843.932 602.035C843.22 602.249 842.982 603.137 843.491 603.678L854.599 615.5L860.755 625.785C860.839 625.926 860.957 626.044 861.098 626.129L862.807 627.154C863.156 627.363 863.596 627.341 863.921 627.097L865.233 626.113C865.332 626.038 865.417 625.946 865.483 625.84L871.884 615.5L882.582 603.464C883.124 602.854 882.746 601.886 881.934 601.805L878.884 601.5H876.847C876.553 601.5 876.274 601.63 876.084 601.854L872.197 606.448C871.475 607.301 870.194 607.397 869.353 606.661L865.604 603.38C864.059 602.029 861.742 602.066 860.241 603.467L857.05 606.444C856.167 607.269 854.76 607.128 854.058 606.145L850.683 601.419C850.495 601.156 850.192 601 849.869 601H847.384Z" fill="#58595B" stroke="#58595B"/>
<ellipse id="Ellipse 437" cx="863.384" cy="609.5" rx="1.5" ry="5.5" fill="#231F20"/>
<path id="Subtract" fill-rule="evenodd" clip-rule="evenodd" d="M806.884 513C799.152 513 792.884 519.268 792.884 527V550C792.884 557.732 799.152 564 806.884 564H809.884C817.616 564 823.884 557.732 823.884 550V527C823.884 519.268 817.616 513 809.884 513H806.884ZM808.384 520C811.421 520 813.884 522.462 813.884 525.5V551.5C813.884 554.538 811.421 557 808.384 557C805.346 557 802.884 554.538 802.884 551.5V525.5C802.884 522.462 805.346 520 808.384 520Z" fill="#58595B"/>
<path id="Subtract_2" fill-rule="evenodd" clip-rule="evenodd" d="M915.884 513C908.152 513 901.884 519.268 901.884 527V550C901.884 557.732 908.152 564 915.884 564H918.884C926.616 564 932.884 557.732 932.884 550V527C932.884 519.268 926.616 513 918.884 513H915.884ZM917.384 520C920.421 520 922.884 522.462 922.884 525.5V551.5C922.884 554.538 920.421 557 917.384 557C914.346 557 911.884 554.538 911.884 551.5V525.5C911.884 522.462 914.346 520 917.384 520Z" fill="#58595B"/>
<rect id="Rectangle 112" x="830.884" y="514" width="10" height="49" rx="4" fill="#58595B"/>
<rect id="Rectangle 113" x="843.405" y="536.293" width="8.69389" height="29.6884" rx="4" transform="rotate(-18.3881 843.405 536.293)" fill="#58595B"/>
<path id="Rectangle 114" d="M831.884 520C831.884 516.686 834.57 514 837.884 514H847.384C854.839 514 860.884 520.044 860.884 527.5V527.5C860.884 534.956 854.839 541 847.384 541H837.884C834.57 541 831.884 538.314 831.884 535V520Z" fill="#58595B"/>
<path id="Rectangle 115" d="M840.884 521H843.884C847.75 521 850.884 524.134 850.884 528V528C850.884 531.866 847.75 535 843.884 535H840.884V521Z" fill="#231F20"/>
<path id="Rectangle 116" d="M867.884 518C867.884 515.791 869.674 514 871.884 514H877.884V562H871.884C869.674 562 867.884 560.209 867.884 558V518Z" fill="#58595B"/>
<path id="Rectangle 117" d="M875.884 514H891.884C894.093 514 895.884 515.791 895.884 518V518C895.884 520.209 894.093 522 891.884 522H875.884V514Z" fill="#58595B"/>
<path id="Rectangle 118" d="M875.884 533H891.884C894.093 533 895.884 534.791 895.884 537V537C895.884 539.209 894.093 541 891.884 541H875.884V533Z" fill="#58595B"/>
<path id="Rectangle 119" d="M875.884 554H891.884C894.093 554 895.884 555.791 895.884 558V558C895.884 560.209 894.093 562 891.884 562H875.884V554Z" fill="#58595B"/>
</g>
</g>
</g>
</svg>
